<svg xmlns="http://www.w3.org/2000/svg" xmlns:xlink="http://www.w3.org/1999/xlink" width="800" zoomAndPan="magnify" viewBox="0 0 600 599.999999" height="800" preserveAspectRatio="xMidYMid meet" version="1.0"><defs><clipPath id="29d09c4710"><path d="M 0 36.75 L 600 36.75 L 600 563.25 L 0 563.25 Z M 0 36.75 " clip-rule="nonzero"/></clipPath></defs><g clip-path="url(#29d09c4710)"><path fill="#0ea5e9" d="M 307.492188 541.242188 C 301.429688 544.214844 301.625 544.417969 295.929688 541.628906 C 208.023438 500.769531 115.117188 455.976562 26.597656 416.039062 C 17.054688 413.730469 16.574219 401.089844 26.152344 397.761719 C 49.871094 385.730469 74.984375 374.652344 97.125 360.03125 C 160.4375 390.457031 225.703125 419.824219 289.53125 449.210938 C 301.914062 456.277344 315.183594 448.585938 326.523438 442.882812 C 384.160156 414.53125 443.007812 387.480469 500.746094 359.195312 C 517.386719 368.898438 532.503906 375.78125 550.957031 384.566406 C 560.238281 392.464844 594.964844 397.574219 580.921875 414.390625 C 490.699219 458.074219 397.941406 497.910156 307.492188 541.242188 Z M 295.828125 173.574219 C 288.203125 190.40625 263.066406 224.007812 267.300781 240.703125 C 287.402344 244.445312 303.4375 199.882812 312.070312 185.253906 C 318.984375 168.332031 333.523438 151.238281 333.226562 132.066406 C 333.707031 127.980469 332.480469 129.648438 332.058594 129.40625 C 331.5 129.085938 331.613281 128.484375 330.878906 128.667969 C 330.898438 128.007812 331.046875 127.527344 330.730469 127.105469 C 326.609375 126.925781 327.300781 131.046875 325.691406 130.710938 C 315.480469 142.839844 305.515625 159.992188 295.828125 173.574219 Z M 178.425781 185.519531 C 190.050781 180.667969 219.644531 168.140625 223.804688 157.304688 C 208.964844 143.269531 165.09375 169.910156 149.242188 176.789062 C 141.316406 180.230469 141.871094 190.867188 149.242188 193.890625 C 172.558594 200.832031 194.429688 215.449219 219.421875 214.539062 C 224.109375 214.769531 222.027344 213.644531 222.203125 213.179688 C 222.441406 212.5625 223.171875 212.664062 222.796875 211.921875 C 223.554688 211.882812 224.101562 212.035156 224.542969 211.664062 C 223.808594 207.4375 219.429688 208.417969 219.445312 206.714844 C 208.65625 199.996094 190.566406 191.410156 178.425781 185.519531 Z M 424.835938 206.140625 C 484.328125 188.34375 463.011719 177.261719 418.707031 161.148438 C 409.578125 156.164062 399.980469 155.746094 389.972656 152.957031 C 386.847656 151.203125 387.132812 153.253906 384.496094 152.582031 C 383.425781 152.308594 383.328125 153.375 382.5 153.070312 C 381.824219 152.824219 382.613281 153.214844 380.730469 153.71875 C 382.453125 172.15625 411.546875 179.59375 426.054688 186.546875 C 418.511719 190.140625 376.460938 208.675781 382.476562 217.25 L 381.457031 218.675781 C 384.167969 220.832031 386.984375 217.691406 388.554688 218.445312 C 399.300781 215.320312 413.945312 211.105469 424.835938 206.140625 Z M 126.707031 485.417969 C 180.765625 511.019531 235.246094 535.53125 289.53125 560.46875 C 306.613281 569.53125 323.28125 554.089844 338.84375 548.285156 C 420.171875 508.585938 503.101562 469.925781 584.5 429.988281 C 602.050781 421.375 602.191406 400.511719 590.695312 390.839844 C 564.03125 376.527344 534.355469 368.234375 506.480469 356.449219 C 530.289062 345.019531 560.46875 330.351562 584.496094 318.726562 C 601.976562 310.15625 602.257812 289.351562 590.695312 279.582031 C 564.289062 265.371094 534.914062 257.195312 507.296875 245.488281 L 585.351562 208.101562 C 604.5625 198.578125 604.726562 171.984375 584.871094 162.585938 C 496.335938 122.277344 387.941406 70.226562 298.941406 36.785156 C 201.105469 73.652344 106.261719 117.257812 12.171875 162.441406 C -3.691406 173.59375 -3.324219 196.535156 10.820312 207.351562 C 17.734375 212.332031 81.007812 240.933594 90.15625 245.449219 C 65.515625 253.65625 37.066406 263.894531 13.335938 274.824219 C -3.152344 285.15625 -2.136719 311.113281 15.191406 320.371094 C 39.8125 332.605469 65.386719 344.554688 90.1875 356.707031 C 73.949219 361.394531 50.628906 371.152344 34.945312 376.890625 C 25.207031 380.683594 7.09375 385.867188 3.449219 398.007812 C -7.960938 428.472656 27.769531 437.070312 48.28125 447.59375 C 66.847656 457.078125 107.4375 475.929688 126.707031 485.417969 Z M 411.609375 381.691406 C 466.367188 356.871094 521.117188 331.253906 575.648438 305.925781 C 579.574219 304.898438 583.488281 301.09375 584.332031 297.089844 C 585.238281 284.652344 559.382812 280.226562 550.960938 273.300781 C 532.628906 264.660156 517.84375 257.710938 501.304688 248.316406 C 481.726562 257.65625 364.554688 313.070312 348.003906 321.445312 C 330.347656 327.214844 313.386719 344.59375 293.707031 339.59375 C 237.082031 314.136719 153.675781 274.824219 97.171875 248.742188 C 75.070312 263.34375 49.855469 274.480469 26.15625 286.5 C 16.644531 289.863281 16.976562 302.425781 26.597656 304.773438 C 80.625 328.695312 139.761719 357.441406 193.5 382.421875 C 223.691406 396.03125 266.039062 416.566406 295.929688 430.363281 C 301.632812 433.167969 301.425781 432.945312 307.496094 429.976562 C 341.511719 413.332031 377.132812 397.496094 411.609375 381.691406 Z M 394.644531 277.785156 L 305.460938 319.671875 C 217.34375 289.144531 111.652344 229.28125 23.75 191.078125 C 12.160156 179.933594 36.832031 174.144531 43.976562 169.835938 C 128.066406 129.050781 213.621094 88.773438 295.554688 43.929688 C 302.472656 39.898438 351.101562 65.035156 357.964844 71.035156 C 428.640625 105.222656 506.925781 144.125 578.429688 177.796875 C 585.144531 181.621094 584.265625 189.921875 578.136719 192.890625 C 578.136719 192.890625 566.480469 198.3125 566.480469 198.3125 C 566.480469 198.3125 394.644531 277.785156 394.644531 277.785156 Z M 394.644531 277.785156 " fill-opacity="1" fill-rule="evenodd"/></g></svg>