<svg xmlns="http://www.w3.org/2000/svg" xmlns:xlink="http://www.w3.org/1999/xlink" width="800" zoomAndPan="magnify" viewBox="0 0 600 599.999999" height="800" preserveAspectRatio="xMidYMid meet" version="1.0"><defs><clipPath id="020365103a"><path d="M 2.167969 0 L 600 0 L 600 600 L 2.167969 600 Z M 2.167969 0 " clip-rule="nonzero"/></clipPath><clipPath id="6f317e79c5"><path d="M 303.011719 0 C 136.859375 0 2.167969 134.316406 2.167969 300 C 2.167969 465.683594 136.859375 600 303.011719 600 C 469.164062 600 603.855469 465.683594 603.855469 300 C 603.855469 134.316406 469.164062 0 303.011719 0 Z M 303.011719 0 " clip-rule="nonzero"/></clipPath><clipPath id="ae8d95d8d4"><path d="M 0.167969 0 L 598 0 L 598 600 L 0.167969 600 Z M 0.167969 0 " clip-rule="nonzero"/></clipPath><clipPath id="ac61376b1a"><path d="M 301.011719 0 C 134.859375 0 0.167969 134.316406 0.167969 300 C 0.167969 465.683594 134.859375 600 301.011719 600 C 467.164062 600 601.855469 465.683594 601.855469 300 C 601.855469 134.316406 467.164062 0 301.011719 0 Z M 301.011719 0 " clip-rule="nonzero"/></clipPath><clipPath id="c3d2f31ef4"><rect x="0" width="598" y="0" height="600"/></clipPath><clipPath id="7a2ad6ae67"><path d="M 193 129.320312 L 437 129.320312 L 437 471.316406 L 193 471.316406 Z M 193 129.320312 " clip-rule="nonzero"/></clipPath><clipPath id="5e561dae00"><path d="M 70.640625 250 L 168 250 L 168 468 L 70.640625 468 Z M 70.640625 250 " clip-rule="nonzero"/></clipPath></defs><g clip-path="url(#020365103a)"><g clip-path="url(#6f317e79c5)"><g transform="matrix(1, 0, 0, 1, 2, -0.000000000000034788)"><g clip-path="url(#c3d2f31ef4)"><g clip-path="url(#ae8d95d8d4)"><g clip-path="url(#ac61376b1a)"><path fill="#0ea5e9" d="M 0.167969 0 L 602.511719 0 L 602.511719 600 L 0.167969 600 Z M 0.167969 0 " fill-opacity="1" fill-rule="nonzero"/></g></g></g></g></g></g><path fill="#ffffff" d="M 528.296875 243.769531 C 526.753906 235.914062 519.140625 230.710938 511.238281 232.347656 L 472.636719 239.964844 C 464.78125 241.503906 459.625 249.167969 461.21875 257.023438 C 462.566406 263.960938 468.636719 268.734375 475.433594 268.734375 C 476.347656 268.734375 477.3125 268.636719 478.277344 268.445312 L 516.875 260.828125 C 524.730469 259.289062 529.839844 251.625 528.296875 243.769531 Z M 528.296875 243.769531 " fill-opacity="1" fill-rule="nonzero"/><path fill="#ffffff" d="M 472.445312 159.535156 C 465.746094 155.050781 456.734375 156.835938 452.300781 163.535156 L 430.375 196.207031 C 425.894531 202.855469 427.675781 211.867188 434.328125 216.351562 C 436.832031 217.988281 439.628906 218.808594 442.421875 218.808594 C 447.097656 218.808594 451.675781 216.542969 454.519531 212.351562 L 476.445312 179.675781 C 480.878906 173.027344 479.09375 164.015625 472.445312 159.535156 Z M 472.445312 159.535156 " fill-opacity="1" fill-rule="nonzero"/><path fill="#ffffff" d="M 369.558594 195.144531 C 370.910156 202.085938 376.980469 206.855469 383.773438 206.855469 C 384.691406 206.855469 385.65625 206.761719 386.617188 206.566406 C 394.472656 205.023438 399.582031 197.363281 398.039062 189.507812 L 390.425781 150.90625 C 388.882812 143.050781 381.269531 137.945312 373.367188 139.4375 C 365.511719 140.980469 360.402344 148.644531 361.945312 156.496094 Z M 369.558594 195.144531 " fill-opacity="1" fill-rule="nonzero"/><g clip-path="url(#7a2ad6ae67)"><path fill="#ffffff" d="M 421.652344 312.828125 C 431.484375 307.09375 437.75 295.914062 436.253906 283.429688 C 434.421875 268.058594 420.109375 257.214844 404.640625 257.214844 L 308.308594 257.214844 C 309.03125 255.238281 310.042969 252.683594 311.007812 250.324219 C 316.839844 235.769531 327.632812 208.734375 327.632812 181.027344 C 327.632812 149.894531 305.851562 131.054688 290.769531 129.992188 C 281.179688 129.320312 274.238281 135.292969 272.695312 145.65625 C 269.804688 165.21875 256.84375 194.039062 251.539062 205.410156 C 249.949219 208.832031 247.976562 211.867188 245.515625 214.710938 C 236.792969 224.734375 214.386719 249.503906 193.230469 264.105469 C 193.277344 264.972656 193.519531 265.839844 193.519531 266.757812 L 193.519531 451.230469 C 193.519531 452.867188 193.230469 454.410156 193.039062 455.953125 C 229.035156 466.457031 262.09375 471.515625 297.804688 471.515625 L 379.773438 471.515625 C 394.085938 471.515625 407.386719 462.023438 410.28125 448.050781 C 412.640625 436.578125 408.398438 425.929688 400.691406 419.183594 C 413.847656 416.097656 423.675781 404.242188 423.675781 390.125 C 423.675781 381.160156 419.726562 373.113281 413.414062 367.621094 C 426.566406 364.535156 436.398438 352.679688 436.398438 338.558594 C 436.496094 327.621094 430.519531 317.984375 421.652344 312.828125 Z M 421.652344 312.828125 " fill-opacity="1" fill-rule="nonzero"/></g><g clip-path="url(#5e561dae00)"><path fill="#ffffff" d="M 151.304688 250.515625 L 87.019531 250.515625 C 78.054688 250.515625 70.777344 257.792969 70.777344 266.757812 L 70.777344 451.230469 C 70.777344 460.191406 78.054688 467.46875 87.019531 467.46875 L 151.304688 467.46875 C 160.269531 467.46875 167.546875 460.191406 167.546875 451.230469 L 167.546875 266.757812 C 167.546875 257.792969 160.269531 250.515625 151.304688 250.515625 Z M 119.164062 438.75 C 109.71875 438.75 102.101562 431.085938 102.101562 421.6875 C 102.101562 412.292969 109.765625 404.628906 119.164062 404.628906 C 128.558594 404.628906 136.222656 412.292969 136.222656 421.6875 C 136.222656 431.085938 128.609375 438.75 119.164062 438.75 Z M 119.164062 438.75 " fill-opacity="1" fill-rule="nonzero"/></g></svg>