<svg xmlns="http://www.w3.org/2000/svg" xmlns:xlink="http://www.w3.org/1999/xlink" width="800" zoomAndPan="magnify" viewBox="0 0 600 599.999999" height="800" preserveAspectRatio="xMidYMid meet" version="1.0"><defs><clipPath id="af9e00d8b5"><path d="M 2.167969 0 L 600 0 L 600 596.152344 L 2.167969 596.152344 Z M 2.167969 0 " clip-rule="nonzero"/></clipPath><clipPath id="605ce7ca47"><path d="M 301.082031 0 C 135.996094 0 2.167969 133.453125 2.167969 298.078125 C 2.167969 462.699219 135.996094 596.152344 301.082031 596.152344 C 466.171875 596.152344 600 462.699219 600 298.078125 C 600 133.453125 466.171875 0 301.082031 0 Z M 301.082031 0 " clip-rule="nonzero"/></clipPath><clipPath id="3019881fd7"><path d="M 0.167969 0 L 598 0 L 598 596.152344 L 0.167969 596.152344 Z M 0.167969 0 " clip-rule="nonzero"/></clipPath><clipPath id="41d628875a"><path d="M 299.082031 0 C 133.996094 0 0.167969 133.453125 0.167969 298.078125 C 0.167969 462.699219 133.996094 596.152344 299.082031 596.152344 C 464.171875 596.152344 598 462.699219 598 298.078125 C 598 133.453125 464.171875 0 299.082031 0 Z M 299.082031 0 " clip-rule="nonzero"/></clipPath><clipPath id="1fb450920f"><rect x="0" width="598" y="0" height="597"/></clipPath><clipPath id="2941b4c468"><path d="M 212 212 L 388 212 L 388 388 L 212 388 Z M 212 212 " clip-rule="nonzero"/></clipPath><clipPath id="cdfaadc888"><path d="M 299.996094 212.058594 C 251.507812 212.058594 212.054688 251.511719 212.054688 300 C 212.054688 348.488281 251.507812 387.941406 299.996094 387.941406 C 348.484375 387.941406 387.9375 348.488281 387.9375 300 C 387.9375 251.511719 348.484375 212.058594 299.996094 212.058594 Z M 299.996094 371.953125 C 260.328125 371.953125 228.042969 339.675781 228.042969 300 C 228.042969 260.324219 260.328125 228.046875 299.996094 228.046875 C 339.667969 228.046875 371.949219 260.324219 371.949219 300 C 371.949219 339.675781 339.667969 371.953125 299.996094 371.953125 Z M 299.996094 371.953125 " clip-rule="nonzero"/></clipPath><clipPath id="9b40993939"><path d="M 252 244 L 348 244 L 348 356 L 252 356 Z M 252 244 " clip-rule="nonzero"/></clipPath><clipPath id="11a9900f12"><path d="M 344.085938 269.164062 L 304.113281 245.179688 C 301.578125 243.667969 298.421875 243.667969 295.886719 245.179688 L 255.914062 269.164062 C 253.5 270.601562 252.027344 273.203125 252.027344 276.015625 L 252.027344 323.984375 C 252.027344 326.796875 253.5 329.398438 255.90625 330.835938 L 295.878906 354.820312 C 297.152344 355.578125 298.574219 355.964844 299.996094 355.964844 C 301.421875 355.964844 302.84375 355.578125 304.113281 354.820312 L 344.085938 330.835938 C 346.496094 329.398438 347.964844 326.796875 347.964844 323.984375 L 347.964844 276.015625 C 347.964844 273.203125 346.496094 270.601562 344.085938 269.164062 Z M 299.996094 261.355469 L 324.429688 276.015625 L 299.996094 290.679688 L 275.566406 276.015625 Z M 268.019531 290.132812 L 292.003906 304.523438 L 292.003906 333.839844 L 268.019531 319.449219 Z M 307.992188 333.847656 L 307.992188 304.53125 L 331.976562 290.140625 L 331.976562 319.460938 Z M 307.992188 333.847656 " clip-rule="nonzero"/></clipPath><clipPath id="5a055f1e63"><path d="M 76.144531 60 L 523.894531 60 L 523.894531 540 L 76.144531 540 Z M 76.144531 60 " clip-rule="nonzero"/></clipPath><clipPath id="a24227d093"><path d="M 519.972656 234.898438 C 522.378906 233.460938 523.847656 230.863281 523.847656 228.046875 L 523.847656 188.074219 C 523.847656 185.261719 522.378906 182.660156 519.972656 181.222656 L 479.996094 157.238281 C 477.464844 155.726562 474.304688 155.726562 471.769531 157.238281 L 435.859375 178.785156 L 347.964844 127.515625 L 347.964844 92.136719 C 347.964844 89.324219 346.496094 86.726562 344.085938 85.285156 L 304.113281 61.300781 C 301.578125 59.792969 298.421875 59.792969 295.886719 61.300781 L 255.914062 85.285156 C 253.5 86.726562 252.027344 89.324219 252.027344 92.136719 L 252.027344 127.515625 L 164.144531 178.785156 L 128.230469 157.238281 C 125.695312 155.726562 122.539062 155.726562 120.003906 157.238281 L 80.03125 181.222656 C 77.617188 182.660156 76.144531 185.261719 76.144531 188.074219 L 76.144531 228.046875 C 76.144531 230.863281 77.617188 233.460938 80.023438 234.898438 L 116.117188 256.558594 L 116.117188 343.441406 L 80.023438 365.101562 C 77.617188 366.539062 76.144531 369.136719 76.144531 371.953125 L 76.144531 411.925781 C 76.144531 414.738281 77.617188 417.339844 80.023438 418.777344 L 119.996094 442.761719 C 121.265625 443.519531 122.691406 443.90625 124.113281 443.90625 C 125.535156 443.90625 126.960938 443.519531 128.230469 442.761719 L 164.144531 421.214844 L 252.027344 472.484375 L 252.027344 507.863281 C 252.027344 510.675781 253.5 513.273438 255.90625 514.714844 L 295.878906 538.699219 C 297.152344 539.457031 298.574219 539.839844 299.996094 539.839844 C 301.421875 539.839844 302.84375 539.457031 304.113281 538.699219 L 344.085938 514.714844 C 346.496094 513.273438 347.964844 510.675781 347.964844 507.863281 L 347.964844 472.484375 L 435.851562 421.214844 L 471.761719 442.761719 C 473.035156 443.519531 474.457031 443.90625 475.878906 443.90625 C 477.304688 443.90625 478.726562 443.519531 479.996094 442.761719 L 519.972656 418.777344 C 522.378906 417.339844 523.847656 414.738281 523.847656 411.925781 L 523.847656 371.953125 C 523.847656 369.136719 522.378906 366.539062 519.972656 365.101562 L 483.875 343.441406 L 483.875 256.558594 Z M 259.96875 141.402344 L 292.003906 160.621094 L 292.003906 180.480469 C 251.46875 183.171875 216.460938 206.023438 196.839844 239.144531 L 172.082031 223.617188 L 172.082031 192.671875 Z M 427.914062 192.671875 L 427.914062 223.609375 L 403.105469 239.074219 C 383.484375 205.992188 348.492188 183.171875 307.992188 180.480469 L 307.992188 160.621094 L 340.027344 141.402344 Z M 467.886719 343.441406 L 436.003906 362.574219 L 410.5 346.585938 C 416.558594 332.25 419.917969 316.507812 419.917969 300 C 419.917969 283.449219 416.550781 267.683594 410.460938 253.328125 L 435.988281 237.417969 L 467.886719 256.558594 Z M 299.996094 482.550781 L 275.566406 467.890625 L 299.996094 453.226562 L 324.429688 467.890625 Z M 299.996094 403.929688 C 242.691406 403.929688 196.066406 357.304688 196.066406 300 C 196.066406 242.695312 242.691406 196.070312 299.996094 196.070312 C 357.304688 196.070312 403.929688 242.695312 403.929688 300 C 403.929688 357.304688 357.304688 403.929688 299.996094 403.929688 Z M 163.992188 362.574219 L 132.109375 343.441406 L 132.109375 256.558594 L 163.992188 237.425781 L 189.496094 253.414062 C 183.433594 267.75 180.078125 283.492188 180.078125 300 C 180.078125 316.507812 183.433594 332.25 189.496094 346.585938 Z M 132.109375 216.582031 L 156.09375 202.191406 L 156.09375 223.515625 L 132.109375 237.90625 Z M 443.902344 202.191406 L 467.886719 216.582031 L 467.886719 237.90625 L 443.902344 223.515625 Z M 331.976562 127.585938 L 307.992188 141.976562 L 307.992188 120.648438 L 331.976562 106.257812 Z M 292.003906 120.648438 L 292.003906 141.96875 L 268.019531 127.578125 L 268.019531 106.257812 Z M 148.546875 371.953125 L 124.113281 386.613281 L 99.683594 371.953125 L 124.113281 357.289062 Z M 172.082031 376.382812 L 196.839844 360.855469 C 216.453125 393.96875 251.46875 416.828125 292.003906 419.519531 L 292.003906 439.378906 L 259.96875 458.597656 L 172.082031 407.328125 Z M 340.027344 458.597656 L 307.992188 439.378906 L 307.992188 419.519531 C 348.523438 416.828125 383.535156 393.976562 403.152344 360.855469 L 427.914062 376.382812 L 427.914062 407.328125 Z M 475.878906 386.613281 L 451.449219 371.953125 L 475.878906 357.289062 L 500.3125 371.953125 Z M 483.875 237.914062 L 483.875 216.589844 L 507.859375 202.199219 L 507.859375 223.523438 Z M 475.878906 173.410156 L 500.3125 188.074219 L 475.878906 202.738281 L 451.449219 188.074219 Z M 299.996094 77.476562 L 324.429688 92.136719 L 299.996094 106.800781 L 275.566406 92.136719 Z M 124.113281 173.410156 L 148.546875 188.074219 L 124.113281 202.738281 L 99.683594 188.074219 Z M 92.136719 202.191406 L 116.117188 216.582031 L 116.117188 237.90625 L 92.136719 223.515625 Z M 92.136719 386.070312 L 116.117188 400.460938 L 116.117188 421.785156 L 92.136719 407.394531 Z M 132.109375 421.792969 L 132.109375 400.46875 L 156.09375 386.078125 L 156.09375 407.402344 Z M 268.019531 482.007812 L 292.003906 496.398438 L 292.003906 517.71875 L 268.019531 503.328125 Z M 307.992188 517.726562 L 307.992188 496.40625 L 331.976562 482.015625 L 331.976562 503.335938 Z M 443.902344 386.070312 L 467.886719 400.460938 L 467.886719 421.785156 L 443.902344 407.394531 Z M 483.875 421.792969 L 483.875 400.46875 L 507.859375 386.078125 L 507.859375 407.402344 Z M 483.875 421.792969 " clip-rule="nonzero"/></clipPath></defs><g clip-path="url(#af9e00d8b5)"><g clip-path="url(#605ce7ca47)"><g transform="matrix(1, 0, 0, 1, 2, -0.000000000000034788)"><g clip-path="url(#1fb450920f)"><g clip-path="url(#3019881fd7)"><g clip-path="url(#41d628875a)"><path fill="#0ea5e9" d="M 0.167969 0 L 598.648438 0 L 598.648438 596.152344 L 0.167969 596.152344 Z M 0.167969 0 " fill-opacity="1" fill-rule="nonzero"/></g></g></g></g></g></g><g clip-path="url(#2941b4c468)"><g clip-path="url(#cdfaadc888)"><path fill="#ffffff" d="M 212.054688 212.058594 L 212.054688 387.941406 L 387.9375 387.941406 L 387.9375 212.058594 Z M 212.054688 212.058594 " fill-opacity="1" fill-rule="nonzero"/></g></g><g clip-path="url(#9b40993939)"><g clip-path="url(#11a9900f12)"><path fill="#ffffff" d="M 252.027344 243.667969 L 252.027344 355.964844 L 347.964844 355.964844 L 347.964844 243.667969 Z M 252.027344 243.667969 " fill-opacity="1" fill-rule="nonzero"/></g></g><g clip-path="url(#5a055f1e63)"><g clip-path="url(#a24227d093)"><path fill="#ffffff" d="M 76.144531 60 L 76.144531 539.839844 L 523.847656 539.839844 L 523.847656 60 Z M 76.144531 60 " fill-opacity="1" fill-rule="nonzero"/></g></g></svg>