<svg xmlns="http://www.w3.org/2000/svg" xmlns:xlink="http://www.w3.org/1999/xlink" width="800" zoomAndPan="magnify" viewBox="0 0 600 599.999999" height="800" preserveAspectRatio="xMidYMid meet" version="1.0"><path fill="#0ea5e9" d="M 465.648438 197.703125 C 462.097656 197.703125 458.578125 197.839844 455.089844 198.113281 L 455.089844 65.316406 C 455.089844 61.195312 451.742188 57.847656 447.621094 57.847656 L 397.246094 57.847656 L 397.246094 7.46875 C 397.246094 3.347656 393.894531 0 389.777344 0 L 7.46875 0 C 3.347656 0 0 3.347656 0 7.46875 L 0 480.3125 C 0 484.429688 3.347656 487.78125 7.46875 487.78125 L 57.847656 487.78125 L 57.847656 538.15625 C 57.847656 542.277344 61.195312 545.625 65.316406 545.625 L 411.523438 545.625 C 414.324219 553.855469 421.230469 560.179688 429.808594 562.132812 L 429.808594 564.136719 C 429.808594 583.90625 445.890625 599.988281 465.660156 599.988281 C 485.425781 599.988281 501.511719 583.90625 501.511719 564.136719 L 501.511719 562.132812 C 512.738281 559.554688 521.152344 549.511719 521.152344 537.511719 C 521.152344 533.539062 520.207031 529.78125 518.5625 526.429688 C 529.628906 523.742188 537.882812 513.773438 537.882812 501.894531 C 537.882812 494.601562 534.757812 488.027344 529.792969 483.410156 L 529.792969 480.773438 C 529.792969 462.785156 537.136719 447.222656 551.027344 435.785156 C 582.175781 410.140625 600.023438 372.324219 600.023438 332.027344 C 600.023438 257.949219 539.75 197.675781 465.671875 197.675781 Z M 14.9375 472.84375 L 14.9375 14.9375 L 382.308594 14.9375 L 382.308594 57.847656 L 139.332031 57.847656 C 137.390625 57.859375 135.472656 58.605469 134.054688 60.039062 L 60.039062 134.054688 C 58.605469 135.484375 57.871094 137.390625 57.871094 139.332031 L 57.859375 139.332031 L 57.859375 472.84375 Z M 131.863281 83.351562 L 131.863281 131.875 L 83.339844 131.875 Z M 72.785156 146.800781 L 139.332031 146.800781 C 143.453125 146.800781 146.800781 143.453125 146.800781 139.332031 L 146.800781 72.785156 L 440.152344 72.785156 L 440.152344 200.140625 C 401.9375 207.511719 369.449219 231.125 350.164062 263.476562 L 123.160156 263.476562 C 119.042969 263.476562 115.691406 266.824219 115.691406 270.945312 C 115.691406 275.066406 119.042969 278.414062 123.160156 278.414062 L 342.472656 278.414062 C 337.019531 290.902344 333.398438 304.355469 331.96875 318.460938 L 123.160156 318.460938 C 119.042969 318.460938 115.691406 321.808594 115.691406 325.929688 C 115.691406 330.050781 119.042969 333.398438 123.160156 333.398438 L 331.308594 333.398438 C 331.445312 347.179688 333.671875 360.660156 337.804688 373.445312 L 123.160156 373.445312 C 119.042969 373.445312 115.691406 376.792969 115.691406 380.914062 C 115.691406 385.035156 119.042969 388.382812 123.160156 388.382812 L 343.644531 388.382812 C 352.007812 406.492188 364.417969 422.726562 380.289062 435.796875 C 394.183594 447.238281 401.527344 462.785156 401.527344 480.785156 L 401.527344 483.421875 C 396.558594 488.042969 393.4375 494.613281 393.4375 501.910156 C 393.4375 513.785156 401.6875 523.753906 412.753906 526.445312 C 412.09375 527.800781 411.546875 529.21875 411.125 530.6875 L 72.785156 530.6875 Z M 465.648438 585.0625 C 454.121094 585.0625 444.734375 575.6875 444.734375 564.148438 L 444.734375 562.792969 L 486.546875 562.792969 L 486.546875 564.148438 C 486.546875 575.675781 477.175781 585.0625 465.636719 585.0625 Z M 495.859375 547.867188 L 435.4375 547.867188 C 429.734375 547.867188 425.105469 543.222656 425.105469 537.535156 C 425.105469 531.847656 429.734375 527.203125 435.4375 527.203125 L 495.859375 527.203125 C 501.558594 527.203125 506.191406 531.847656 506.191406 537.535156 C 506.191406 543.222656 501.558594 547.867188 495.859375 547.867188 Z M 512.589844 512.253906 L 418.71875 512.253906 C 413.015625 512.253906 408.386719 507.609375 408.386719 501.921875 C 408.386719 496.234375 413.015625 491.589844 418.71875 491.589844 L 512.589844 491.589844 C 518.289062 491.589844 522.921875 496.234375 522.921875 501.921875 C 522.921875 507.609375 518.289062 512.253906 512.589844 512.253906 Z M 541.507812 424.28125 C 525.101562 437.789062 515.976562 455.863281 514.929688 476.761719 C 514.15625 476.6875 513.375 476.640625 512.578125 476.640625 L 418.707031 476.640625 C 417.910156 476.640625 417.136719 476.6875 416.363281 476.761719 C 415.332031 455.863281 406.195312 437.789062 389.789062 424.28125 C 362.105469 401.488281 346.230469 367.878906 346.230469 332.066406 C 346.230469 266.214844 399.796875 212.652344 465.648438 212.652344 C 531.496094 212.652344 585.0625 266.214844 585.0625 332.066406 C 585.0625 367.878906 569.191406 401.488281 541.507812 424.28125 Z M 465.648438 276.210938 C 434.851562 276.210938 409.804688 301.257812 409.804688 332.054688 C 409.804688 362.851562 434.851562 387.894531 465.648438 387.894531 C 496.445312 387.894531 521.488281 362.851562 521.488281 332.054688 C 521.488281 301.257812 496.445312 276.210938 465.648438 276.210938 Z M 465.648438 372.957031 C 443.089844 372.957031 424.742188 354.609375 424.742188 332.054688 C 424.742188 309.496094 443.089844 291.148438 465.648438 291.148438 C 488.203125 291.148438 506.550781 309.496094 506.550781 332.054688 C 506.550781 354.609375 488.203125 372.957031 465.648438 372.957031 Z M 558.097656 308.789062 L 546.050781 306.683594 C 544.582031 302.027344 542.703125 297.496094 540.449219 293.164062 L 547.480469 283.144531 C 549.574219 280.171875 549.222656 276.136719 546.648438 273.574219 L 524.140625 251.066406 C 521.578125 248.503906 517.53125 248.152344 514.570312 250.230469 L 504.558594 257.265625 C 500.214844 255 495.695312 253.132812 491.042969 251.664062 L 488.9375 239.613281 C 488.316406 236.042969 485.214844 233.425781 481.582031 233.425781 L 449.75 233.425781 C 446.117188 233.425781 443.015625 236.042969 442.394531 239.613281 L 440.289062 251.664062 C 435.621094 253.132812 431.105469 255.011719 426.757812 257.265625 L 416.75 250.230469 C 413.789062 248.152344 409.742188 248.488281 407.179688 251.066406 L 384.671875 273.574219 C 382.109375 276.136719 381.757812 280.183594 383.839844 283.144531 L 390.871094 293.152344 C 388.605469 297.496094 386.738281 302.015625 385.257812 306.671875 L 373.207031 308.777344 C 369.636719 309.398438 367.019531 312.511719 367.019531 316.132812 L 367.019531 347.960938 C 367.019531 351.597656 369.636719 354.695312 373.207031 355.320312 L 385.257812 357.421875 C 386.726562 362.078125 388.605469 366.609375 390.859375 370.941406 L 383.824219 380.949219 C 381.734375 383.925781 382.082031 387.957031 384.660156 390.523438 L 407.164062 413.027344 C 409.730469 415.59375 413.777344 415.941406 416.738281 413.863281 L 426.746094 406.828125 C 431.089844 409.09375 435.609375 410.960938 440.265625 412.429688 L 442.371094 424.480469 C 442.992188 428.054688 446.089844 430.667969 449.726562 430.667969 L 481.554688 430.667969 C 485.191406 430.667969 488.289062 428.054688 488.914062 424.480469 L 491.015625 412.429688 C 495.671875 410.960938 500.203125 409.082031 504.535156 406.828125 L 514.542969 413.863281 C 517.519531 415.953125 521.550781 415.605469 524.117188 413.027344 L 546.621094 390.523438 C 549.1875 387.957031 549.535156 383.914062 547.457031 380.949219 L 540.421875 370.941406 C 542.6875 366.597656 544.554688 362.078125 546.039062 357.421875 L 558.085938 355.320312 C 561.660156 354.695312 564.273438 351.585938 564.273438 347.960938 L 564.273438 316.132812 C 564.273438 312.496094 561.660156 309.398438 558.085938 308.777344 Z M 549.335938 341.6875 L 538.855469 343.519531 C 535.953125 344.027344 533.613281 346.195312 532.890625 349.046875 C 531.25 355.554688 528.671875 361.792969 525.210938 367.570312 C 523.691406 370.09375 523.816406 373.28125 525.511719 375.695312 L 531.636719 384.410156 L 518.003906 398.042969 L 509.289062 391.917969 C 506.875 390.222656 503.6875 390.101562 501.160156 391.617188 C 495.375 395.078125 489.148438 397.65625 482.640625 399.296875 C 479.777344 400.019531 477.609375 402.347656 477.113281 405.261719 L 475.28125 415.742188 L 456.011719 415.742188 L 454.183594 405.261719 C 453.671875 402.359375 451.507812 400.019531 448.65625 399.296875 C 442.144531 397.65625 435.910156 395.078125 430.132812 391.617188 C 427.605469 390.113281 424.417969 390.222656 422.003906 391.917969 L 413.289062 398.042969 L 399.660156 384.410156 L 405.785156 375.695312 C 407.476562 373.28125 407.601562 370.09375 406.082031 367.570312 C 402.621094 361.792969 400.046875 355.554688 398.402344 349.046875 C 397.679688 346.183594 395.351562 344.015625 392.441406 343.507812 L 381.957031 341.675781 L 381.957031 322.40625 L 392.441406 320.578125 C 395.339844 320.066406 397.679688 317.902344 398.402344 315.050781 C 400.046875 308.539062 402.632812 302.304688 406.082031 296.527344 C 407.589844 294 407.476562 290.8125 405.785156 288.398438 L 399.660156 279.683594 L 413.289062 266.054688 L 422.003906 272.179688 C 424.417969 273.871094 427.605469 273.996094 430.132812 272.476562 C 435.910156 269.015625 442.144531 266.441406 448.65625 264.796875 C 451.519531 264.074219 453.683594 261.746094 454.195312 258.835938 L 456.023438 248.351562 L 475.292969 248.351562 L 477.125 258.835938 C 477.636719 261.734375 479.800781 264.074219 482.664062 264.796875 C 489.175781 266.441406 495.398438 269.015625 501.1875 272.476562 C 503.714844 273.984375 506.898438 273.871094 509.316406 272.179688 L 518.027344 266.054688 L 531.660156 279.683594 L 525.535156 288.398438 C 523.84375 290.8125 523.71875 294 525.238281 296.527344 C 528.695312 302.316406 531.273438 308.539062 532.917969 315.050781 C 533.640625 317.914062 535.96875 320.078125 538.878906 320.578125 L 549.359375 322.40625 L 549.359375 341.675781 Z M 189.710938 139.332031 C 189.710938 135.210938 193.058594 131.863281 197.179688 131.863281 L 389.761719 131.863281 C 393.882812 131.863281 397.230469 135.210938 397.230469 139.332031 C 397.230469 143.453125 393.882812 146.800781 389.761719 146.800781 L 197.179688 146.800781 C 193.058594 146.800781 189.710938 143.453125 189.710938 139.332031 Z M 241.542969 435.910156 C 241.542969 440.027344 238.195312 443.378906 234.074219 443.378906 L 123.160156 443.378906 C 119.042969 443.378906 115.691406 440.027344 115.691406 435.910156 C 115.691406 431.789062 119.042969 428.441406 123.160156 428.441406 L 234.074219 428.441406 C 238.195312 428.441406 241.542969 431.789062 241.542969 435.910156 Z M 241.542969 435.910156 " fill-opacity="1" fill-rule="nonzero"/></svg>