<svg xmlns="http://www.w3.org/2000/svg" xmlns:xlink="http://www.w3.org/1999/xlink" width="800" zoomAndPan="magnify" viewBox="0 0 600 599.999999" height="800" preserveAspectRatio="xMidYMid meet" version="1.0"><defs><clipPath id="45513045d7"><path d="M 25.5 0 L 574.5 0 L 574.5 600 L 25.5 600 Z M 25.5 0 " clip-rule="nonzero"/></clipPath><clipPath id="88406091da"><path d="M 25.5 0 L 574.5 0 L 574.5 600 L 25.5 600 Z M 25.5 0 " clip-rule="nonzero"/></clipPath></defs><g clip-path="url(#45513045d7)"><path stroke-linecap="butt" transform="matrix(0.75, 0, 0, 0.75, -82.397195, -77.951235)" fill="none" stroke-linejoin="miter" d="M 666.639039 743.487143 C 666.196331 757.435061 670.810914 769.367354 680.472374 779.28923 C 716.602586 816.403817 752.79009 853.065279 789.029677 889.268408 C 817.743222 917.987161 860.461976 900.471534 872.326561 866.096531 C 878.180728 849.112154 876.149478 835.549653 866.227602 825.409026 C 844.670308 803.299649 805.425512 763.528812 748.503631 706.091305 C 735.821338 693.299637 726.378629 696.211096 711.05571 694.450679 C 706.722376 693.950679 703.613001 690.028804 704.113001 685.690262 C 704.24321 684.575678 704.607793 683.497553 705.18071 682.53922 C 729.123421 642.49234 745.211964 598.856919 753.44634 551.638164 C 768.493216 465.356905 780.738009 362.914185 790.180719 244.310006 C 791.170302 231.57563 786.30051 224.820421 775.576551 224.049587 C 661.69633 215.997503 561.540069 176.940207 475.112977 106.8777 C 470.795268 103.346449 464.586934 103.299574 460.180684 106.768325 C 371.227549 177.304791 269.279622 216.841253 154.342109 225.367296 C 148.659817 225.794379 144.248358 230.492296 144.18065 236.185005 C 144.034816 249.435007 144.49315 262.101675 145.55565 274.185009 C 151.519192 343.367308 159.008776 413.393358 168.013986 484.263157 C 175.993153 547.226705 187.211904 596.643377 201.670239 632.513173 C 248.618161 748.867352 348.112963 824.091318 461.665059 871.47674 C 464.503601 872.669448 467.722351 872.63299 470.555685 871.367365 C 543.529651 839.138195 609.201533 801.247566 664.112997 742.440268 C 664.691122 741.867351 665.63383 741.872559 666.206747 742.450684 C 666.482789 742.726726 666.633831 743.101726 666.639039 743.487143 " stroke="#818181" stroke-width="2" stroke-opacity="1" stroke-miterlimit="4"/></g><path stroke-linecap="butt" transform="matrix(0.75, 0, 0, 0.75, -82.397195, -77.951235)" fill="none" stroke-linejoin="miter" d="M 690.467166 670.237135 C 691.649458 670.914218 693.149458 670.528802 693.810917 669.367343 C 693.816125 669.367343 693.816125 669.362135 693.816125 669.362135 C 714.534877 634.768381 728.665087 595.617335 736.206755 551.908997 C 753.920298 449.778778 766.185925 346.679809 772.993217 242.612089 C 773.086967 241.398548 772.154675 240.346464 770.915092 240.247506 C 770.915092 240.247506 770.909883 240.247506 770.909883 240.247506 C 657.904663 232.711047 557.404652 193.997501 469.404643 124.117285 C 468.415059 123.309993 466.993184 123.309993 465.998392 124.117285 C 377.378591 192.898542 276.769206 231.810005 164.170235 240.851672 C 162.21711 241.002714 160.74836 242.669381 160.87336 244.586048 C 165.888985 325.086056 175.055653 412.023566 188.38378 505.403784 C 196.29003 560.601707 206.722323 602.919419 219.680658 632.351714 C 267.727538 741.507976 355.800464 806.356941 462.487975 853.138196 C 464.482767 854.013196 466.764018 854.03403 468.800476 853.195488 C 536.889025 824.643401 602.722365 784.830897 652.086954 730.914225 C 655.310913 727.534016 655.191121 722.179849 651.810912 718.95589 C 648.90987 716.185056 644.456745 715.836098 641.15987 718.117348 C 621.612992 731.075683 599.51924 740.997559 574.883821 747.877768 C 569.612987 749.37256 564.639028 751.726727 560.170278 754.851727 C 533.920275 773.372563 503.998397 790.981939 470.394226 807.67465 C 467.357768 809.159025 463.810892 809.117358 460.842142 807.565275 C 436.571306 794.82569 415.39422 782.872564 397.310885 771.711104 C 314.508793 720.534015 254.165037 640.205882 235.878576 544.497538 C 219.185866 457.304821 209.79524 367.252728 205.019198 280.664177 C 204.878573 277.612093 207.071282 274.961051 210.071282 274.570426 C 303.050458 262.414175 387.920259 229.85688 464.680684 176.882916 C 465.956726 175.997499 467.659851 176.018332 468.909851 176.940207 C 544.467151 230.492296 628.784868 263.237092 721.87342 275.169384 C 725.201545 275.596468 727.62342 278.549593 727.420295 281.924594 C 722.477587 353.158976 714.701544 423.789192 704.081751 493.815241 C 703.508834 497.518367 703.925501 501.294409 705.290085 504.742326 C 726.269254 559.049623 716.878628 616.263171 689.477583 667.106926 C 688.878625 668.211093 689.295291 669.601718 690.409875 670.237135 L 690.467166 670.237135 " stroke="#818181" stroke-width="2" stroke-opacity="1" stroke-miterlimit="4"/><path stroke-linecap="butt" transform="matrix(0.75, 0, 0, 0.75, -82.397195, -77.951235)" fill="none" stroke-linejoin="miter" d="M 691.014041 468.174613 L 711.607794 293.841261 C 711.831752 291.935011 710.46196 290.200636 708.529668 289.940219 C 622.362992 278.226676 542.633817 247.627715 469.35256 198.132918 C 467.586934 196.935001 465.264017 196.935001 463.472351 198.132918 C 390.446301 246.304798 310.701501 276.471468 224.23795 288.622511 C 222.441075 288.877719 221.165033 290.497511 221.326491 292.304803 C 227.149409 355.851685 234.415034 420.789192 243.128577 487.117324 C 249.456703 535.586079 257.915037 572.481916 268.493163 597.815252 C 306.764001 689.622554 375.842133 745.794435 462.758809 790.101731 C 464.144226 790.794439 465.795267 790.773606 467.206726 790.049648 L 534.253608 753.919436 C 535.008817 753.476727 535.269233 752.502769 534.826525 751.742352 C 534.555691 751.27881 534.071316 750.981935 533.540066 750.955894 C 437.066098 748.37256 358.107756 677.872552 353.274422 579.362125 C 353.18588 577.455875 351.612964 575.955875 349.706713 575.961083 L 311.269209 575.685042 C 306.889001 575.664208 303.264 572.263166 302.977542 567.888166 L 302.92025 566.846499 C 302.435875 563.299624 304.889 560.033998 308.404626 559.544415 C 308.644209 559.513165 308.883792 559.492331 309.128584 559.487123 L 346.191088 558.49754 C 349.352547 558.43504 351.982755 556.018373 352.34213 552.841289 L 354.644214 533.351704 C 354.998381 530.445453 352.915047 527.794411 349.977547 527.419411 L 307.862959 522.481911 C 305.253584 522.143369 303.118167 520.221494 302.48275 517.648577 L 301.987958 515.507952 C 301.23275 512.382951 303.175458 509.237118 306.3265 508.476701 C 306.779626 508.367326 307.237959 508.315243 307.701501 508.315243 L 358.487964 508.315243 C 360.19109 508.315243 361.75359 507.310034 362.498381 505.731909 C 365.72234 498.705867 368.72234 491.914199 371.503591 485.362115 C 376.22755 474.195447 387.868176 457.466279 406.425469 435.17461 C 407.534845 433.86211 407.790053 432.007943 407.08172 430.398568 C 406.935886 429.997526 406.279636 429.315234 405.107761 428.367317 C 401.925469 425.726692 401.394219 421.007942 403.915053 417.830858 C 405.258803 416.138149 407.279636 415.148566 409.446303 415.132941 C 413.764012 415.096483 418.305679 415.424608 423.060888 416.122524 C 426.217138 416.580858 429.425472 415.924608 432.123389 414.252733 C 439.920265 409.533982 446.87339 405.560023 452.987974 402.341273 C 536.9984 358.356893 637.206744 390.367313 687.774458 468.945447 C 688.290083 469.768364 689.373416 470.018364 690.196333 469.502739 C 690.659875 469.211072 690.967166 468.721488 691.014041 468.174613 " stroke="#818181" stroke-width="2" stroke-opacity="1" stroke-miterlimit="4"/><path stroke-linecap="butt" transform="matrix(0.75, 0, 0, 0.75, -82.397195, -77.951235)" fill="none" stroke-linejoin="miter" d="M 498.883813 403.658981 C 409.55047 423.13815 353.112964 512.23191 372.831716 602.664211 C 392.550468 693.091304 480.951519 750.606935 570.279654 731.127766 C 659.612996 711.653806 716.045294 622.554838 696.33175 532.127745 C 676.612998 441.700652 588.211947 384.185021 498.883813 403.658981 " stroke="#818181" stroke-width="2" stroke-opacity="1" stroke-miterlimit="4"/><path stroke-linecap="butt" transform="matrix(0.75, 0, 0, 0.75, -82.397195, -77.951235)" fill="none" stroke-linejoin="miter" d="M 680.034874 687.356928 C 678.128623 685.44547 675.034873 685.44547 673.128623 687.356928 L 660.857788 699.627763 C 658.951538 701.534013 658.951538 704.627764 660.857788 706.534014 L 676.07654 721.757974 C 677.987998 723.664224 681.081749 723.664224 682.987999 721.757974 L 695.258834 709.487139 C 697.165084 707.580889 697.165084 704.487139 695.258834 702.57568 L 680.034874 687.356928 " stroke="#818181" stroke-width="2" stroke-opacity="1" stroke-miterlimit="4"/><path stroke-linecap="butt" transform="matrix(0.75, 0, 0, 0.75, -82.397195, -77.951235)" fill="none" stroke-linejoin="miter" d="M 739.300505 719.294432 C 729.852587 709.747556 714.451544 709.669431 704.89946 719.117348 L 691.243208 732.632975 C 681.691124 742.086101 681.60779 757.487144 691.060916 767.03402 L 805.14947 882.325699 C 814.597388 891.872575 830.00364 891.955909 839.550516 882.507991 L 853.211975 868.987156 C 862.758851 859.539238 862.842185 844.138195 853.389059 834.586111 L 739.300505 719.294432 " stroke="#818181" stroke-width="2" stroke-opacity="1" stroke-miterlimit="4"/><path stroke-linecap="butt" transform="matrix(0.75, 0, 0, 0.75, -82.397195, -77.951235)" fill="none" stroke-linejoin="miter" d="M 323.623377 351.935018 L 308.415042 336.669391 C 305.889 334.164182 301.868167 333.976682 299.0765 336.231891 L 297.321291 337.711058 C 293.607749 340.783975 293.071291 346.273559 296.123374 349.966267 C 296.290041 350.174601 296.472333 350.372517 296.659833 350.560017 L 319.008793 372.908978 C 322.795252 376.674604 328.894211 376.679812 332.639003 372.919395 C 332.769212 372.789187 332.889003 372.658978 333.014003 372.523562 L 378.805675 321.351681 C 380.930675 318.976681 380.711925 315.315222 378.316091 313.169389 C 378.316091 313.169389 378.310883 313.169389 378.310883 313.169389 L 376.555675 311.575638 C 372.852549 308.252721 367.15984 308.554805 363.836923 312.25793 C 363.810882 312.28918 363.78484 312.315222 363.758798 312.346472 L 329.441086 351.716268 C 327.982753 353.377726 325.467127 353.565226 323.826502 352.122518 C 323.753586 352.065226 323.691086 351.997518 323.623377 351.935018 " stroke="#818181" stroke-width="2" stroke-opacity="1" stroke-miterlimit="4"/><path stroke-linecap="butt" transform="matrix(0.75, 0, 0, 0.75, -82.397195, -77.951235)" fill="none" stroke-linejoin="miter" d="M 623.253618 342.461058 C 623.248409 338.976683 620.415076 336.153766 616.9307 336.158974 L 409.816095 336.518349 C 406.326511 336.528766 403.503594 339.356891 403.508802 342.846475 L 403.519219 347.2371 C 403.524427 350.726684 406.357761 353.549601 409.842136 353.544393 L 616.96195 353.179809 C 620.446326 353.174601 623.269243 350.341267 623.264034 346.856892 L 623.253618 342.461058 " stroke="#818181" stroke-width="2" stroke-opacity="1" stroke-miterlimit="4"/><path stroke-linecap="butt" transform="matrix(0.75, 0, 0, 0.75, -82.397195, -77.951235)" fill="none" stroke-linejoin="miter" d="M 323.295252 442.200652 L 308.357751 427.487109 C 305.889 425.086067 301.998375 424.924609 299.300458 427.101692 L 297.597333 428.586067 C 294.003582 431.565234 293.503582 436.898568 296.487958 440.492319 C 296.659833 440.70586 296.847333 440.908985 297.045249 441.106902 L 319.008793 462.685029 C 322.758794 466.315238 328.717128 466.237113 332.326503 462.513154 C 332.43067 462.408988 332.529628 462.299613 332.628587 462.190238 L 376.774425 411.950649 C 378.816092 409.638149 378.5713 406.080857 376.222341 403.987107 L 374.524424 402.450648 C 370.878591 399.247523 365.342132 399.586064 362.15984 403.211065 C 362.12859 403.247523 362.092131 403.28919 362.060881 403.325648 L 329.003586 441.929819 C 327.618169 443.575652 325.175461 443.804819 323.550461 442.440236 C 323.461919 442.367319 323.373377 442.283986 323.295252 442.200652 " stroke="#818181" stroke-width="2" stroke-opacity="1" stroke-miterlimit="4"/><path stroke-linecap="butt" transform="matrix(0.75, 0, 0, 0.75, -82.397195, -77.951235)" fill="none" stroke-linejoin="miter" d="M 532.196316 424.773567 C 454.368183 426.403776 392.612968 491.601699 394.26401 570.398583 C 395.915052 649.200674 460.34735 711.757973 538.175484 710.127764 C 616.003617 708.497556 677.753623 643.294424 676.10779 564.49754 C 674.456748 485.700657 610.02445 423.143359 532.196316 424.773567 " stroke="#818181" stroke-width="2" stroke-opacity="1" stroke-miterlimit="4"/><path stroke-linecap="butt" transform="matrix(0.75, 0, 0, 0.75, -82.397195, -77.951235)" fill="none" stroke-linejoin="miter" d="M 440.081723 491.950658 L 614.748408 491.179824 C 619.357784 491.153782 623.118201 494.862116 623.149451 499.471492 C 623.149451 499.50795 623.149451 499.544408 623.149451 499.580867 L 623.149451 500.023575 C 623.086951 504.601701 619.326534 508.263159 614.748408 508.205868 C 614.732783 508.205868 614.71195 508.205868 614.691117 508.205868 C 559.967153 507.106909 507.180689 507.013159 456.336933 507.929826 C 447.769224 508.091284 438.159848 509.138159 434.045264 500.955867 C 433.534847 499.919408 432.264014 499.513158 431.21193 500.049617 C 430.89943 500.211075 430.623389 500.44545 430.420264 500.737117 C 413.946304 524.492328 407.743178 550.575664 411.805678 578.981917 C 419.055679 630.080881 444.987974 665.112134 489.612978 684.075678 C 584.10778 724.216307 680.086957 634.549631 655.050496 537.362121 C 647.071328 506.539201 631.493202 482.778782 608.321324 466.086071 C 562.784861 433.325651 515.107773 432.39336 465.284851 463.289196 C 455.295266 469.476697 446.508807 478.315239 438.930681 489.810032 C 438.508806 490.440241 438.670265 491.289199 439.300473 491.716283 C 439.52964 491.872533 439.805681 491.950658 440.081723 491.950658 " stroke="#818181" stroke-width="2" stroke-opacity="1" stroke-miterlimit="4"/><path stroke-linecap="butt" transform="matrix(0.75, 0, 0, 0.75, -82.397195, -77.951235)" fill="none" stroke-linejoin="miter" d="M 621.378617 562.37254 C 621.362992 558.643373 618.321325 555.632956 614.592158 555.653789 L 429.222347 556.622539 C 425.49318 556.643373 422.487971 559.68504 422.503596 563.414207 L 422.52443 566.815249 C 422.545263 570.544416 425.581722 573.554833 429.310889 573.534 L 614.6807 572.56525 C 618.409867 572.544416 621.420284 569.507958 621.399451 565.77879 L 621.378617 562.37254 " stroke="#818181" stroke-width="2" stroke-opacity="1" stroke-miterlimit="4"/><g clip-path="url(#88406091da)"><path fill="#0ea5e9" d="M 417.582031 479.664062 C 417.578125 479.050781 417.074219 478.554688 416.460938 478.558594 C 416.171875 478.5625 415.890625 478.675781 415.6875 478.882812 C 374.503906 522.988281 325.25 551.402344 270.523438 575.574219 C 268.394531 576.523438 265.980469 576.550781 263.851562 575.65625 C 178.6875 540.117188 104.066406 483.699219 68.855469 396.4375 C 58.011719 369.53125 49.597656 332.46875 43.613281 285.246094 C 36.859375 232.09375 31.242188 179.574219 26.769531 127.6875 C 25.972656 118.625 25.628906 109.125 25.738281 99.1875 C 25.789062 94.917969 29.097656 91.394531 33.359375 91.074219 C 119.5625 84.679688 196.023438 55.027344 262.738281 2.125 C 266.042969 -0.472656 270.699219 -0.441406 273.9375 2.207031 C 338.757812 54.753906 413.875 84.046875 499.285156 90.085938 C 507.328125 90.664062 510.980469 95.730469 510.238281 105.285156 C 503.15625 194.234375 493.972656 271.066406 482.6875 335.777344 C 476.511719 371.191406 464.445312 403.917969 446.488281 433.953125 C 444.808594 436.761719 445.722656 440.40625 448.53125 442.085938 C 449.253906 442.519531 450.058594 442.792969 450.898438 442.890625 C 462.386719 444.207031 469.46875 442.023438 478.980469 451.621094 C 521.671875 494.695312 551.105469 524.523438 567.273438 541.105469 C 574.714844 548.710938 576.238281 558.882812 571.847656 571.621094 C 562.949219 597.402344 530.910156 610.539062 509.375 589 C 482.195312 561.847656 455.054688 534.351562 427.957031 506.515625 C 420.710938 499.074219 417.25 490.125 417.582031 479.664062 Z M 435.453125 424.726562 C 436.339844 425.234375 437.464844 424.945312 437.960938 424.074219 C 437.964844 424.074219 437.964844 424.070312 437.964844 424.070312 C 453.503906 398.125 464.101562 368.761719 469.757812 335.980469 C 483.042969 259.382812 492.242188 182.058594 497.347656 104.007812 C 497.417969 103.097656 496.71875 102.308594 495.789062 102.234375 C 495.789062 102.234375 495.785156 102.234375 495.785156 102.234375 C 411.03125 96.582031 335.65625 67.546875 269.65625 15.136719 C 268.914062 14.53125 267.847656 14.53125 267.101562 15.136719 C 200.636719 66.722656 125.179688 95.90625 40.730469 102.6875 C 39.265625 102.800781 38.164062 104.050781 38.257812 105.488281 C 42.019531 165.863281 48.894531 231.066406 58.890625 301.101562 C 64.820312 342.5 72.644531 374.238281 82.363281 396.3125 C 118.398438 478.179688 184.453125 526.816406 264.46875 561.902344 C 265.964844 562.558594 267.675781 562.574219 269.203125 561.945312 C 320.269531 540.53125 369.644531 510.671875 406.667969 470.234375 C 409.085938 467.699219 408.996094 463.683594 406.460938 461.265625 C 404.285156 459.1875 400.945312 458.925781 398.472656 460.636719 C 383.8125 470.355469 367.242188 477.796875 348.765625 482.957031 C 344.8125 484.078125 341.082031 485.84375 337.730469 488.1875 C 318.042969 502.078125 295.601562 515.285156 270.398438 527.804688 C 268.121094 528.917969 265.460938 528.886719 263.234375 527.722656 C 245.03125 518.167969 229.148438 509.203125 215.585938 500.832031 C 153.484375 462.449219 108.226562 402.203125 94.511719 330.421875 C 81.992188 265.027344 74.949219 197.488281 71.367188 132.546875 C 71.261719 130.257812 72.90625 128.269531 75.15625 127.976562 C 144.890625 118.859375 208.542969 94.441406 266.113281 54.714844 C 267.070312 54.046875 268.347656 54.0625 269.285156 54.753906 C 325.953125 94.917969 389.191406 119.476562 459.007812 128.425781 C 461.503906 128.746094 463.320312 130.960938 463.167969 133.492188 C 459.460938 186.917969 453.628906 239.890625 445.664062 292.410156 C 445.234375 295.1875 445.546875 298.019531 446.570312 300.605469 C 462.304688 341.335938 455.261719 384.246094 434.710938 422.378906 C 434.261719 423.207031 434.574219 424.25 435.410156 424.726562 Z M 435.863281 273.179688 L 451.308594 142.429688 C 451.476562 141 450.449219 139.699219 449 139.503906 C 384.375 130.71875 324.578125 107.769531 269.617188 70.648438 C 268.292969 69.75 266.550781 69.75 265.207031 70.648438 C 210.4375 106.777344 150.628906 129.402344 85.78125 138.515625 C 84.433594 138.707031 83.476562 139.921875 83.597656 141.277344 C 87.964844 188.9375 93.414062 237.640625 99.949219 287.386719 C 104.695312 323.738281 111.039062 351.410156 118.972656 370.410156 C 147.675781 439.265625 199.484375 481.394531 264.671875 514.625 C 265.710938 515.144531 266.949219 515.128906 268.007812 514.585938 L 318.292969 487.488281 C 318.859375 487.15625 319.054688 486.425781 318.722656 485.855469 C 318.519531 485.507812 318.15625 485.285156 317.757812 485.265625 C 245.402344 483.328125 186.183594 430.453125 182.558594 356.574219 C 182.492188 355.140625 181.3125 354.015625 179.882812 354.019531 L 151.054688 353.8125 C 147.769531 353.800781 145.050781 351.246094 144.835938 347.964844 L 144.792969 347.183594 C 144.429688 344.523438 146.269531 342.074219 148.90625 341.707031 C 149.085938 341.683594 149.265625 341.667969 149.449219 341.664062 L 177.246094 340.921875 C 179.617188 340.875 181.589844 339.0625 181.859375 336.679688 L 183.585938 322.0625 C 183.851562 319.882812 182.289062 317.894531 180.085938 317.613281 L 148.5 313.910156 C 146.542969 313.65625 144.941406 312.214844 144.464844 310.285156 L 144.09375 308.679688 C 143.527344 306.335938 144.984375 303.976562 147.347656 303.40625 C 147.6875 303.324219 148.03125 303.285156 148.378906 303.285156 L 186.46875 303.285156 C 187.746094 303.285156 188.917969 302.53125 189.476562 301.347656 C 191.894531 296.078125 194.144531 290.984375 196.230469 286.070312 C 199.773438 277.695312 208.503906 265.148438 222.421875 248.429688 C 223.253906 247.445312 223.445312 246.054688 222.914062 244.847656 C 222.804688 244.546875 222.3125 244.035156 221.433594 243.324219 C 219.050781 241.34375 218.648438 237.804688 220.539062 235.421875 C 221.546875 234.152344 223.0625 233.410156 224.6875 233.398438 C 227.925781 233.371094 231.332031 233.617188 234.898438 234.140625 C 237.265625 234.484375 239.671875 233.992188 241.695312 232.738281 C 247.542969 229.199219 252.757812 226.21875 257.34375 223.804688 C 320.351562 190.816406 395.507812 214.824219 433.433594 273.757812 C 433.820312 274.375 434.632812 274.5625 435.25 274.175781 C 435.597656 273.957031 435.828125 273.589844 435.863281 273.179688 Z M 291.765625 224.792969 C 224.765625 239.402344 182.4375 306.222656 197.226562 374.046875 C 212.015625 441.867188 278.316406 485.003906 345.3125 470.394531 C 412.3125 455.789062 454.636719 388.964844 439.851562 321.144531 C 425.0625 253.324219 358.761719 210.1875 291.765625 224.792969 Z M 427.628906 437.566406 C 426.199219 436.136719 423.878906 436.136719 422.449219 437.566406 L 413.246094 446.769531 C 411.816406 448.199219 411.816406 450.519531 413.246094 451.949219 L 424.660156 463.367188 C 426.09375 464.796875 428.414062 464.796875 429.84375 463.367188 L 439.046875 454.164062 C 440.476562 452.734375 440.476562 450.414062 439.046875 448.980469 Z M 472.078125 461.519531 C 464.992188 454.359375 453.441406 454.300781 446.277344 461.386719 L 436.035156 471.523438 C 428.871094 478.613281 428.808594 490.164062 435.898438 497.324219 L 521.464844 583.792969 C 528.550781 590.953125 540.105469 591.015625 547.265625 583.929688 L 557.511719 573.789062 C 564.671875 566.703125 564.734375 555.152344 557.648438 547.988281 Z M 472.078125 461.519531 " fill-opacity="1" fill-rule="nonzero"/></g><path fill="#0ea5e9" d="M 164.683594 185.835938 L 190.421875 156.308594 C 192.878906 153.5 197.144531 153.214844 199.953125 155.671875 C 199.976562 155.691406 199.996094 155.710938 200.019531 155.730469 L 201.335938 156.925781 C 203.132812 158.53125 203.300781 161.277344 201.710938 163.058594 C 201.710938 163.058594 201.707031 163.058594 201.707031 163.0625 L 167.363281 201.441406 C 164.71875 204.417969 160.148438 204.671875 157.15625 202.011719 C 157.054688 201.917969 156.957031 201.824219 156.859375 201.730469 L 140.101562 184.96875 C 137.5625 182.425781 137.582031 178.292969 140.144531 175.742188 C 140.289062 175.597656 140.4375 175.460938 140.59375 175.332031 L 141.910156 174.222656 C 144 172.53125 147.019531 172.671875 148.914062 174.550781 L 160.320312 186 C 161.472656 187.160156 163.359375 187.15625 164.539062 185.988281 C 164.589844 185.9375 164.640625 185.886719 164.683594 185.835938 Z M 164.683594 185.835938 " fill-opacity="1" fill-rule="nonzero"/><path fill="#0ea5e9" d="M 224.964844 174.4375 L 380.300781 174.167969 C 382.914062 174.164062 385.039062 176.28125 385.042969 178.894531 L 385.050781 182.191406 C 385.054688 184.804688 382.9375 186.929688 380.324219 186.933594 L 224.984375 187.207031 C 222.371094 187.210938 220.246094 185.09375 220.242188 182.476562 L 220.234375 179.183594 C 220.230469 176.566406 222.347656 174.445312 224.964844 174.4375 Z M 224.964844 174.4375 " fill-opacity="1" fill-rule="nonzero"/><path fill="#0ea5e9" d="M 160.074219 253.699219 C 161.191406 254.832031 163.03125 254.828125 164.175781 253.691406 C 164.238281 253.628906 164.300781 253.5625 164.355469 253.496094 L 189.148438 224.542969 C 191.484375 221.785156 195.628906 221.457031 198.40625 223.808594 C 198.4375 223.835938 198.464844 223.859375 198.496094 223.886719 L 199.773438 225.039062 C 201.53125 226.609375 201.714844 229.277344 200.183594 231.011719 L 167.074219 268.691406 C 164.5 271.609375 160.039062 271.875 157.105469 269.289062 C 157.019531 269.214844 156.941406 269.140625 156.859375 269.0625 L 140.386719 252.878906 C 137.898438 250.414062 137.878906 246.398438 140.339844 243.910156 C 140.488281 243.761719 140.640625 243.621094 140.800781 243.488281 L 142.078125 242.375 C 144.101562 240.742188 147.019531 240.863281 148.871094 242.664062 Z M 160.074219 253.699219 " fill-opacity="1" fill-rule="nonzero"/><path fill="#0ea5e9" d="M 316.75 240.628906 C 375.121094 239.40625 423.445312 286.324219 424.683594 345.421875 C 425.917969 404.519531 379.605469 453.421875 321.234375 454.644531 C 262.863281 455.867188 214.539062 408.949219 213.300781 349.847656 C 212.0625 290.753906 258.378906 241.851562 316.75 240.628906 Z M 247.664062 291.011719 L 378.664062 290.433594 C 382.121094 290.414062 384.941406 293.195312 384.964844 296.652344 C 384.964844 296.679688 384.964844 296.707031 384.964844 296.734375 L 384.964844 297.066406 C 384.917969 300.5 382.097656 303.246094 378.664062 303.203125 C 378.652344 303.203125 378.636719 303.203125 378.621094 303.203125 C 337.578125 302.378906 297.988281 302.308594 259.855469 302.996094 C 253.429688 303.117188 246.222656 303.902344 243.136719 297.765625 C 242.753906 296.988281 241.800781 296.683594 241.011719 297.085938 C 240.777344 297.207031 240.570312 297.382812 240.417969 297.601562 C 228.0625 315.417969 223.410156 334.980469 226.457031 356.285156 C 231.894531 394.609375 251.34375 420.882812 284.8125 435.105469 C 355.683594 465.210938 427.667969 397.960938 408.890625 325.070312 C 402.90625 301.953125 391.222656 284.132812 373.84375 271.613281 C 339.691406 247.042969 303.933594 246.34375 266.566406 269.515625 C 259.074219 274.15625 252.484375 280.785156 246.800781 289.40625 C 246.484375 289.878906 246.605469 290.515625 247.078125 290.835938 C 247.25 290.953125 247.457031 291.015625 247.664062 291.011719 Z M 247.664062 291.011719 " fill-opacity="1" fill-rule="nonzero"/><path fill="#0ea5e9" d="M 239.519531 339.515625 L 378.546875 338.789062 C 381.34375 338.773438 383.625 341.03125 383.636719 343.828125 L 383.652344 346.382812 C 383.667969 349.179688 381.410156 351.457031 378.613281 351.472656 L 239.585938 352.199219 C 236.789062 352.214844 234.511719 349.957031 234.496094 347.160156 L 234.480469 344.609375 C 234.46875 341.8125 236.722656 339.53125 239.519531 339.515625 Z M 239.519531 339.515625 " fill-opacity="1" fill-rule="nonzero"/></svg>