<svg xmlns="http://www.w3.org/2000/svg" xmlns:xlink="http://www.w3.org/1999/xlink" width="800" zoomAndPan="magnify" viewBox="0 0 600 599.999999" height="800" preserveAspectRatio="xMidYMid meet" version="1.0"><path fill="#0ea5e9" d="M 600 300 C 600 304.910156 599.878906 309.816406 599.636719 314.71875 C 599.398438 319.625 599.035156 324.519531 598.554688 329.40625 C 598.074219 334.292969 597.472656 339.164062 596.753906 344.019531 C 596.03125 348.875 595.191406 353.710938 594.234375 358.527344 C 593.277344 363.34375 592.203125 368.132812 591.007812 372.894531 C 589.816406 377.65625 588.507812 382.386719 587.082031 387.085938 C 585.65625 391.785156 584.117188 396.445312 582.464844 401.066406 C 580.808594 405.691406 579.042969 410.269531 577.164062 414.804688 C 575.285156 419.339844 573.296875 423.828125 571.195312 428.265625 C 569.097656 432.703125 566.890625 437.089844 564.578125 441.417969 C 562.261719 445.75 559.84375 450.019531 557.320312 454.230469 C 554.792969 458.441406 552.167969 462.589844 549.441406 466.671875 C 546.714844 470.753906 543.886719 474.765625 540.960938 478.710938 C 538.039062 482.652344 535.019531 486.523438 531.902344 490.316406 C 528.789062 494.113281 525.582031 497.828125 522.285156 501.46875 C 518.988281 505.105469 515.605469 508.660156 512.132812 512.132812 C 508.660156 515.605469 505.105469 518.988281 501.46875 522.285156 C 497.828125 525.582031 494.113281 528.789062 490.316406 531.902344 C 486.523438 535.019531 482.652344 538.039062 478.710938 540.960938 C 474.765625 543.886719 470.753906 546.714844 466.671875 549.441406 C 462.589844 552.167969 458.441406 554.792969 454.230469 557.320312 C 450.019531 559.84375 445.75 562.261719 441.417969 564.578125 C 437.089844 566.890625 432.703125 569.097656 428.265625 571.195312 C 423.828125 573.296875 419.339844 575.285156 414.804688 577.164062 C 410.269531 579.042969 405.691406 580.808594 401.066406 582.464844 C 396.445312 584.117188 391.785156 585.65625 387.085938 587.082031 C 382.386719 588.507812 377.65625 589.816406 372.894531 591.007812 C 368.132812 592.203125 363.34375 593.277344 358.527344 594.234375 C 353.710938 595.195312 348.875 596.03125 344.019531 596.753906 C 339.164062 597.472656 334.292969 598.074219 329.40625 598.554688 C 324.519531 599.035156 319.625 599.398438 314.71875 599.636719 C 309.816406 599.878906 304.910156 600 300 600 C 295.089844 600 290.183594 599.878906 285.28125 599.636719 C 280.375 599.398438 275.480469 599.035156 270.59375 598.554688 C 265.707031 598.074219 260.835938 597.472656 255.980469 596.753906 C 251.125 596.03125 246.289062 595.195312 241.472656 594.234375 C 236.65625 593.277344 231.867188 592.203125 227.105469 591.007812 C 222.34375 589.816406 217.613281 588.507812 212.914062 587.082031 C 208.214844 585.65625 203.554688 584.117188 198.933594 582.464844 C 194.308594 580.808594 189.730469 579.042969 185.195312 577.164062 C 180.660156 575.285156 176.171875 573.296875 171.734375 571.195312 C 167.296875 569.097656 162.910156 566.890625 158.582031 564.578125 C 154.25 562.261719 149.980469 559.84375 145.769531 557.320312 C 141.558594 554.792969 137.410156 552.167969 133.328125 549.441406 C 129.246094 546.714844 125.234375 543.886719 121.289062 540.960938 C 117.347656 538.039062 113.476562 535.019531 109.683594 531.902344 C 105.886719 528.789062 102.171875 525.582031 98.53125 522.285156 C 94.894531 518.988281 91.339844 515.605469 87.867188 512.132812 C 84.394531 508.660156 81.011719 505.105469 77.714844 501.46875 C 74.417969 497.828125 71.210938 494.113281 68.097656 490.316406 C 64.980469 486.523438 61.960938 482.652344 59.039062 478.710938 C 56.113281 474.765625 53.285156 470.753906 50.558594 466.671875 C 47.832031 462.589844 45.207031 458.441406 42.679688 454.230469 C 40.15625 450.019531 37.738281 445.75 35.421875 441.417969 C 33.109375 437.089844 30.902344 432.703125 28.804688 428.265625 C 26.703125 423.828125 24.714844 419.339844 22.835938 414.804688 C 20.957031 410.269531 19.191406 405.691406 17.535156 401.066406 C 15.882812 396.445312 14.34375 391.785156 12.917969 387.085938 C 11.492188 382.386719 10.183594 377.65625 8.992188 372.894531 C 7.796875 368.132812 6.722656 363.34375 5.765625 358.527344 C 4.804688 353.710938 3.96875 348.875 3.246094 344.019531 C 2.527344 339.164062 1.925781 334.292969 1.445312 329.40625 C 0.964844 324.519531 0.601562 319.625 0.363281 314.71875 C 0.121094 309.816406 0 304.910156 0 300 C 0 295.089844 0.121094 290.183594 0.363281 285.28125 C 0.601562 280.375 0.964844 275.480469 1.445312 270.59375 C 1.925781 265.707031 2.527344 260.835938 3.246094 255.980469 C 3.96875 251.125 4.804688 246.289062 5.765625 241.472656 C 6.722656 236.65625 7.796875 231.867188 8.992188 227.105469 C 10.183594 222.34375 11.492188 217.613281 12.917969 212.914062 C 14.34375 208.214844 15.882812 203.554688 17.535156 198.933594 C 19.191406 194.308594 20.957031 189.730469 22.835938 185.195312 C 24.714844 180.660156 26.703125 176.171875 28.804688 171.734375 C 30.902344 167.296875 33.109375 162.910156 35.421875 158.582031 C 37.738281 154.25 40.15625 149.980469 42.679688 145.769531 C 45.207031 141.558594 47.832031 137.410156 50.558594 133.328125 C 53.285156 129.246094 56.113281 125.234375 59.039062 121.289062 C 61.960938 117.347656 64.980469 113.476562 68.097656 109.683594 C 71.210938 105.886719 74.417969 102.171875 77.714844 98.53125 C 81.011719 94.894531 84.394531 91.339844 87.867188 87.867188 C 91.339844 84.394531 94.894531 81.011719 98.53125 77.714844 C 102.171875 74.417969 105.886719 71.210938 109.683594 68.097656 C 113.476562 64.980469 117.347656 61.960938 121.289062 59.039062 C 125.234375 56.113281 129.246094 53.285156 133.328125 50.558594 C 137.410156 47.832031 141.558594 45.207031 145.769531 42.679688 C 149.980469 40.15625 154.25 37.738281 158.582031 35.421875 C 162.910156 33.109375 167.296875 30.902344 171.734375 28.804688 C 176.171875 26.703125 180.660156 24.714844 185.195312 22.835938 C 189.730469 20.957031 194.308594 19.191406 198.933594 17.535156 C 203.554688 15.882812 208.214844 14.34375 212.914062 12.917969 C 217.613281 11.492188 222.34375 10.183594 227.105469 8.992188 C 231.867188 7.796875 236.65625 6.722656 241.472656 5.765625 C 246.289062 4.804688 251.125 3.96875 255.980469 3.246094 C 260.835938 2.527344 265.707031 1.925781 270.59375 1.445312 C 275.480469 0.964844 280.375 0.601562 285.28125 0.363281 C 290.183594 0.121094 295.089844 0 300 0 C 304.910156 0 309.816406 0.121094 314.71875 0.363281 C 319.625 0.601562 324.519531 0.964844 329.40625 1.445312 C 334.292969 1.925781 339.164062 2.527344 344.019531 3.246094 C 348.875 3.96875 353.710938 4.804688 358.527344 5.765625 C 363.34375 6.722656 368.132812 7.796875 372.894531 8.992188 C 377.65625 10.183594 382.386719 11.492188 387.085938 12.917969 C 391.785156 14.34375 396.445312 15.882812 401.066406 17.535156 C 405.691406 19.191406 410.269531 20.957031 414.804688 22.835938 C 419.339844 24.714844 423.828125 26.703125 428.265625 28.804688 C 432.703125 30.902344 437.089844 33.109375 441.417969 35.421875 C 445.75 37.738281 450.019531 40.15625 454.230469 42.679688 C 458.441406 45.207031 462.589844 47.832031 466.671875 50.558594 C 470.753906 53.285156 474.765625 56.113281 478.710938 59.039062 C 482.652344 61.960938 486.523438 64.980469 490.316406 68.097656 C 494.113281 71.210938 497.828125 74.417969 501.46875 77.714844 C 505.105469 81.011719 508.660156 84.394531 512.132812 87.867188 C 515.605469 91.339844 518.988281 94.894531 522.285156 98.53125 C 525.582031 102.171875 528.789062 105.886719 531.902344 109.683594 C 535.019531 113.476562 538.039062 117.347656 540.960938 121.289062 C 543.886719 125.234375 546.714844 129.246094 549.441406 133.328125 C 552.167969 137.410156 554.792969 141.558594 557.320312 145.769531 C 559.84375 149.980469 562.261719 154.25 564.578125 158.582031 C 566.890625 162.910156 569.097656 167.296875 571.195312 171.734375 C 573.296875 176.171875 575.285156 180.660156 577.164062 185.195312 C 579.042969 189.730469 580.808594 194.308594 582.464844 198.933594 C 584.117188 203.554688 585.65625 208.214844 587.082031 212.914062 C 588.507812 217.613281 589.816406 222.34375 591.007812 227.105469 C 592.203125 231.867188 593.277344 236.65625 594.234375 241.472656 C 595.191406 246.289062 596.03125 251.125 596.753906 255.980469 C 597.472656 260.835938 598.074219 265.707031 598.554688 270.59375 C 599.035156 275.480469 599.398438 280.375 599.636719 285.28125 C 599.878906 290.183594 600 295.089844 600 300 Z M 600 300 " fill-opacity="1" fill-rule="nonzero"/><path fill="#ffffff" d="M 462.492188 492.199219 L 289.648438 492.199219 C 287.398438 492.199219 285.597656 490.398438 285.597656 488.148438 L 285.597656 461.589844 L 354.6875 461.589844 C 356.488281 468.566406 363.015625 473.742188 370.441406 473.742188 C 379.445312 473.742188 386.871094 466.316406 386.871094 457.539062 C 386.871094 448.539062 379.445312 441.109375 370.441406 441.109375 C 363.015625 441.109375 356.488281 446.285156 354.6875 453.261719 L 285.597656 453.261719 L 285.597656 419.503906 L 354.6875 419.503906 C 356.488281 426.480469 363.015625 431.65625 370.441406 431.65625 C 379.445312 431.65625 386.871094 424.457031 386.871094 415.453125 C 386.871094 406.453125 379.445312 399.25 370.441406 399.25 C 363.015625 399.25 356.488281 404.425781 354.6875 411.402344 L 285.597656 411.402344 L 285.597656 377.417969 L 354.6875 377.417969 C 356.488281 384.394531 363.015625 389.796875 370.441406 389.796875 C 379.445312 389.796875 386.871094 382.371094 386.871094 373.367188 C 386.871094 364.367188 379.445312 357.164062 370.441406 357.164062 C 363.015625 357.164062 356.488281 362.339844 354.6875 369.316406 L 285.597656 369.316406 L 285.597656 342.761719 C 285.597656 340.511719 287.398438 338.710938 289.648438 338.710938 L 462.492188 338.710938 C 464.742188 338.710938 466.542969 340.511719 466.542969 342.761719 L 466.542969 366.167969 L 434.359375 366.167969 C 432.109375 366.167969 430.308594 367.96875 430.308594 370.21875 L 430.308594 460.691406 C 430.308594 462.941406 432.109375 464.742188 434.359375 464.742188 L 466.542969 464.742188 L 466.542969 488.148438 C 466.542969 490.398438 464.742188 492.199219 462.492188 492.199219 Z M 466.542969 374.269531 L 466.542969 456.640625 L 438.410156 456.640625 L 438.410156 374.269531 Z M 370.441406 449.210938 C 365.941406 449.210938 362.339844 453.039062 362.339844 457.539062 C 362.339844 462.039062 365.941406 465.640625 370.441406 465.640625 C 374.945312 465.640625 378.542969 462.039062 378.542969 457.539062 C 378.542969 453.039062 374.945312 449.210938 370.441406 449.210938 Z M 370.441406 407.351562 C 365.941406 407.351562 362.339844 410.953125 362.339844 415.453125 C 362.339844 419.953125 365.941406 423.554688 370.441406 423.554688 C 374.945312 423.554688 378.542969 419.953125 378.542969 415.453125 C 378.542969 410.953125 374.945312 407.351562 370.441406 407.351562 Z M 370.441406 365.265625 C 365.941406 365.265625 362.339844 368.867188 362.339844 373.367188 C 362.339844 377.871094 365.941406 381.46875 370.441406 381.46875 C 374.945312 381.46875 378.542969 377.871094 378.542969 373.367188 C 378.542969 368.867188 374.945312 365.265625 370.441406 365.265625 Z M 370.441406 365.265625 " fill-opacity="1" fill-rule="evenodd"/><path fill="#ffffff" d="M 448.539062 346.8125 L 303.601562 346.8125 C 301.351562 346.8125 299.550781 345.011719 299.550781 342.761719 L 299.550781 299.324219 C 299.550781 261.289062 329.480469 230.234375 366.167969 230.234375 L 386.195312 230.234375 C 422.878906 230.234375 452.589844 261.289062 452.589844 299.324219 L 452.589844 342.761719 C 452.589844 345.011719 450.789062 346.8125 448.539062 346.8125 Z M 424.007812 338.710938 L 424.007812 299.324219 C 424.007812 277.496094 406.226562 259.714844 384.394531 259.714844 L 367.742188 259.714844 C 345.910156 259.714844 328.132812 277.496094 328.132812 299.324219 L 328.132812 338.710938 Z M 424.007812 338.710938 " fill-opacity="1" fill-rule="evenodd"/><path fill="#ffffff" d="M 269.390625 423.554688 C 228.882812 423.554688 191.746094 398.800781 166.992188 355.589844 C 136.160156 301.800781 131.882812 233.609375 133.683594 185.898438 C 134.132812 176.21875 137.960938 167.890625 145.160156 161.367188 C 152.589844 154.839844 161.140625 151.914062 170.816406 152.589844 C 195.800781 154.164062 227.082031 136.382812 244.410156 118.605469 C 251.164062 111.628906 259.488281 108.027344 269.390625 108.027344 C 279.070312 108.027344 287.621094 111.628906 294.375 118.605469 C 311.703125 136.160156 342.984375 154.164062 367.742188 152.363281 C 377.417969 151.914062 386.195312 154.839844 393.398438 161.367188 C 400.601562 167.890625 404.652344 176.21875 404.875 185.898438 C 405.328125 199.398438 405.328125 212.453125 404.875 225.28125 C 398.800781 223.707031 392.5 222.804688 386.195312 222.804688 L 374.492188 222.804688 C 375.167969 211.328125 375.167969 199.398438 374.71875 187.023438 C 374.492188 185.898438 374.042969 184.769531 373.144531 183.871094 C 372.242188 182.972656 371.117188 182.746094 369.765625 182.746094 C 318.230469 186.347656 272.992188 140.210938 272.542969 139.761719 C 271.644531 138.859375 270.519531 138.410156 269.390625 138.410156 C 268.042969 138.410156 266.917969 138.859375 266.015625 139.761719 C 265.566406 140.210938 220.554688 186.347656 168.792969 182.746094 C 167.667969 182.746094 166.316406 182.972656 165.417969 183.871094 C 164.515625 184.769531 164.066406 185.898438 164.066406 187.023438 C 160.914062 267.140625 178.246094 331.058594 212.453125 366.617188 C 229.332031 383.945312 248.914062 393.171875 269.390625 393.171875 C 272.316406 393.171875 275.242188 392.949219 278.167969 392.5 L 278.167969 423.105469 C 275.242188 423.332031 272.316406 423.554688 269.390625 423.554688 Z M 258.363281 299.773438 C 258.363281 299.773438 258.363281 299.773438 258.140625 299.773438 C 257.015625 299.773438 256.113281 299.101562 255.4375 298.199219 L 242.160156 277.945312 C 241.035156 276.144531 241.484375 274.117188 243.0625 272.992188 C 244.859375 271.867188 247.113281 272.316406 248.011719 273.894531 L 258.589844 289.871094 L 285.820312 254.765625 C 286.945312 253.1875 289.199219 252.964844 290.773438 254.089844 C 292.347656 255.4375 292.796875 257.6875 291.449219 259.265625 L 261.289062 298.425781 C 260.613281 299.324219 259.488281 299.773438 258.363281 299.773438 Z M 269.390625 332.632812 C 236.085938 332.632812 209.078125 305.625 209.078125 272.316406 C 209.078125 239.234375 236.085938 212.226562 269.390625 212.226562 C 290.097656 212.226562 309.003906 222.804688 319.804688 239.683594 C 332.183594 229.332031 348.160156 223.03125 365.492188 222.804688 C 365.941406 212.902344 366.167969 202.550781 365.714844 191.972656 C 319.804688 192.648438 280.644531 159.789062 269.390625 149.210938 C 258.140625 159.566406 219.878906 191.972656 174.644531 191.972656 C 173.96875 191.972656 173.519531 191.972656 172.84375 191.972656 C 169.917969 293.699219 200.300781 340.960938 218.980469 360.316406 C 234.058594 375.84375 251.386719 384.171875 269.390625 384.171875 C 272.316406 384.171875 275.242188 383.945312 278.167969 383.496094 L 278.167969 342.761719 C 278.167969 336.460938 283.347656 331.28125 289.648438 331.28125 L 292.121094 331.28125 L 292.121094 328.132812 C 284.921875 331.058594 277.269531 332.632812 269.390625 332.632812 Z M 269.390625 221.230469 C 241.035156 221.230469 218.078125 244.1875 218.078125 272.316406 C 218.078125 300.675781 241.035156 323.632812 269.390625 323.632812 C 277.269531 323.632812 285.144531 321.832031 292.121094 318.230469 L 292.121094 299.324219 C 292.121094 278.84375 300 259.714844 313.054688 245.988281 C 304.050781 230.683594 287.398438 221.230469 269.390625 221.230469 Z M 269.390625 221.230469 " fill-opacity="1" fill-rule="evenodd"/></svg>