<svg xmlns="http://www.w3.org/2000/svg" xmlns:xlink="http://www.w3.org/1999/xlink" width="800" zoomAndPan="magnify" viewBox="0 0 600 599.999999" height="800" preserveAspectRatio="xMidYMid meet" version="1.0"><path fill="#0ea5e9" d="M 600 300 C 600 304.910156 599.878906 309.816406 599.636719 314.71875 C 599.398438 319.625 599.035156 324.519531 598.554688 329.40625 C 598.074219 334.292969 597.472656 339.164062 596.753906 344.019531 C 596.03125 348.875 595.191406 353.710938 594.234375 358.527344 C 593.277344 363.34375 592.203125 368.132812 591.007812 372.894531 C 589.816406 377.65625 588.507812 382.386719 587.082031 387.085938 C 585.65625 391.785156 584.117188 396.445312 582.464844 401.066406 C 580.808594 405.691406 579.042969 410.269531 577.164062 414.804688 C 575.285156 419.339844 573.296875 423.828125 571.195312 428.265625 C 569.097656 432.703125 566.890625 437.089844 564.578125 441.417969 C 562.261719 445.75 559.84375 450.019531 557.320312 454.230469 C 554.792969 458.441406 552.167969 462.589844 549.441406 466.671875 C 546.714844 470.753906 543.886719 474.765625 540.960938 478.710938 C 538.039062 482.652344 535.019531 486.523438 531.902344 490.316406 C 528.789062 494.113281 525.582031 497.828125 522.285156 501.46875 C 518.988281 505.105469 515.605469 508.660156 512.132812 512.132812 C 508.660156 515.605469 505.105469 518.988281 501.46875 522.285156 C 497.828125 525.582031 494.113281 528.789062 490.316406 531.902344 C 486.523438 535.019531 482.652344 538.039062 478.710938 540.960938 C 474.765625 543.886719 470.753906 546.714844 466.671875 549.441406 C 462.589844 552.167969 458.441406 554.792969 454.230469 557.320312 C 450.019531 559.84375 445.75 562.261719 441.417969 564.578125 C 437.089844 566.890625 432.703125 569.097656 428.265625 571.195312 C 423.828125 573.296875 419.339844 575.285156 414.804688 577.164062 C 410.269531 579.042969 405.691406 580.808594 401.066406 582.464844 C 396.445312 584.117188 391.785156 585.65625 387.085938 587.082031 C 382.386719 588.507812 377.65625 589.816406 372.894531 591.007812 C 368.132812 592.203125 363.34375 593.277344 358.527344 594.234375 C 353.710938 595.191406 348.875 596.03125 344.019531 596.753906 C 339.164062 597.472656 334.292969 598.074219 329.40625 598.554688 C 324.519531 599.035156 319.625 599.398438 314.71875 599.636719 C 309.816406 599.878906 304.910156 600 300 600 C 295.089844 600 290.183594 599.878906 285.28125 599.636719 C 280.375 599.398438 275.480469 599.035156 270.59375 598.554688 C 265.707031 598.074219 260.835938 597.472656 255.980469 596.753906 C 251.125 596.03125 246.289062 595.191406 241.472656 594.234375 C 236.65625 593.277344 231.867188 592.203125 227.105469 591.007812 C 222.34375 589.816406 217.613281 588.507812 212.914062 587.082031 C 208.214844 585.65625 203.554688 584.117188 198.933594 582.464844 C 194.308594 580.808594 189.730469 579.042969 185.195312 577.164062 C 180.660156 575.285156 176.171875 573.296875 171.734375 571.195312 C 167.296875 569.097656 162.910156 566.890625 158.582031 564.578125 C 154.25 562.261719 149.980469 559.84375 145.769531 557.320312 C 141.558594 554.792969 137.410156 552.167969 133.328125 549.441406 C 129.246094 546.714844 125.234375 543.886719 121.289062 540.960938 C 117.347656 538.039062 113.476562 535.019531 109.683594 531.902344 C 105.886719 528.789062 102.171875 525.582031 98.53125 522.285156 C 94.894531 518.988281 91.339844 515.605469 87.867188 512.132812 C 84.394531 508.660156 81.011719 505.105469 77.714844 501.46875 C 74.417969 497.828125 71.210938 494.113281 68.097656 490.316406 C 64.980469 486.523438 61.960938 482.652344 59.039062 478.710938 C 56.113281 474.765625 53.285156 470.753906 50.558594 466.671875 C 47.832031 462.589844 45.207031 458.441406 42.679688 454.230469 C 40.15625 450.019531 37.738281 445.75 35.421875 441.417969 C 33.109375 437.089844 30.902344 432.703125 28.804688 428.265625 C 26.703125 423.828125 24.714844 419.339844 22.835938 414.804688 C 20.957031 410.269531 19.191406 405.691406 17.535156 401.066406 C 15.882812 396.445312 14.34375 391.785156 12.917969 387.085938 C 11.492188 382.386719 10.183594 377.65625 8.992188 372.894531 C 7.796875 368.132812 6.722656 363.34375 5.765625 358.527344 C 4.804688 353.710938 3.96875 348.875 3.246094 344.019531 C 2.527344 339.164062 1.925781 334.292969 1.445312 329.40625 C 0.964844 324.519531 0.601562 319.625 0.363281 314.71875 C 0.121094 309.816406 0 304.910156 0 300 C 0 295.089844 0.121094 290.183594 0.363281 285.28125 C 0.601562 280.375 0.964844 275.480469 1.445312 270.59375 C 1.925781 265.707031 2.527344 260.835938 3.246094 255.980469 C 3.96875 251.125 4.804688 246.289062 5.765625 241.472656 C 6.722656 236.65625 7.796875 231.867188 8.992188 227.105469 C 10.183594 222.34375 11.492188 217.613281 12.917969 212.914062 C 14.34375 208.214844 15.882812 203.554688 17.535156 198.933594 C 19.191406 194.308594 20.957031 189.730469 22.835938 185.195312 C 24.714844 180.660156 26.703125 176.171875 28.804688 171.734375 C 30.902344 167.296875 33.109375 162.910156 35.421875 158.582031 C 37.738281 154.25 40.15625 149.980469 42.679688 145.769531 C 45.207031 141.558594 47.832031 137.410156 50.558594 133.328125 C 53.285156 129.246094 56.113281 125.234375 59.039062 121.289062 C 61.960938 117.347656 64.980469 113.476562 68.097656 109.683594 C 71.210938 105.886719 74.417969 102.171875 77.714844 98.53125 C 81.011719 94.894531 84.394531 91.339844 87.867188 87.867188 C 91.339844 84.394531 94.894531 81.011719 98.53125 77.714844 C 102.171875 74.417969 105.886719 71.210938 109.683594 68.097656 C 113.476562 64.980469 117.347656 61.960938 121.289062 59.039062 C 125.234375 56.113281 129.246094 53.285156 133.328125 50.558594 C 137.410156 47.832031 141.558594 45.207031 145.769531 42.679688 C 149.980469 40.15625 154.25 37.738281 158.582031 35.421875 C 162.910156 33.109375 167.296875 30.902344 171.734375 28.804688 C 176.171875 26.703125 180.660156 24.714844 185.195312 22.835938 C 189.730469 20.957031 194.308594 19.191406 198.933594 17.535156 C 203.554688 15.882812 208.214844 14.34375 212.914062 12.917969 C 217.613281 11.492188 222.34375 10.183594 227.105469 8.992188 C 231.867188 7.796875 236.65625 6.722656 241.472656 5.765625 C 246.289062 4.804688 251.125 3.96875 255.980469 3.246094 C 260.835938 2.527344 265.707031 1.925781 270.59375 1.445312 C 275.480469 0.964844 280.375 0.601562 285.28125 0.363281 C 290.183594 0.121094 295.089844 0 300 0 C 304.910156 0 309.816406 0.121094 314.71875 0.363281 C 319.625 0.601562 324.519531 0.964844 329.40625 1.445312 C 334.292969 1.925781 339.164062 2.527344 344.019531 3.246094 C 348.875 3.96875 353.710938 4.804688 358.527344 5.765625 C 363.34375 6.722656 368.132812 7.796875 372.894531 8.992188 C 377.65625 10.183594 382.386719 11.492188 387.085938 12.917969 C 391.785156 14.34375 396.445312 15.882812 401.066406 17.535156 C 405.691406 19.191406 410.269531 20.957031 414.804688 22.835938 C 419.339844 24.714844 423.828125 26.703125 428.265625 28.804688 C 432.703125 30.902344 437.089844 33.109375 441.417969 35.421875 C 445.75 37.738281 450.019531 40.15625 454.230469 42.679688 C 458.441406 45.207031 462.589844 47.832031 466.671875 50.558594 C 470.753906 53.285156 474.765625 56.113281 478.710938 59.039062 C 482.652344 61.960938 486.523438 64.980469 490.316406 68.097656 C 494.113281 71.210938 497.828125 74.417969 501.46875 77.714844 C 505.105469 81.011719 508.660156 84.394531 512.132812 87.867188 C 515.605469 91.339844 518.988281 94.894531 522.285156 98.53125 C 525.582031 102.171875 528.789062 105.886719 531.902344 109.683594 C 535.019531 113.476562 538.039062 117.347656 540.960938 121.289062 C 543.886719 125.234375 546.714844 129.246094 549.441406 133.328125 C 552.167969 137.410156 554.792969 141.558594 557.320312 145.769531 C 559.84375 149.980469 562.261719 154.25 564.578125 158.582031 C 566.890625 162.910156 569.097656 167.296875 571.195312 171.734375 C 573.296875 176.171875 575.285156 180.660156 577.164062 185.195312 C 579.042969 189.730469 580.808594 194.308594 582.464844 198.933594 C 584.117188 203.554688 585.65625 208.214844 587.082031 212.914062 C 588.507812 217.613281 589.816406 222.34375 591.007812 227.105469 C 592.203125 231.867188 593.277344 236.65625 594.234375 241.472656 C 595.191406 246.289062 596.03125 251.125 596.753906 255.980469 C 597.472656 260.835938 598.074219 265.707031 598.554688 270.59375 C 599.035156 275.480469 599.398438 280.375 599.636719 285.28125 C 599.878906 290.183594 600 295.089844 600 300 Z M 600 300 " fill-opacity="1" fill-rule="nonzero"/><path fill="#ffffff" d="M 300 371.5 C 282.875 371.5 268.75 357.5 268.75 340.25 C 268.75 323.125 282.75 309 300 309 C 317.125 309 331.25 323 331.25 340.25 C 331.25 357.5 317.125 371.5 300 371.5 Z M 300 318.125 C 287.75 318.125 277.75 328.125 277.75 340.375 C 277.75 352.625 287.75 362.625 300 362.625 C 312.25 362.625 322.25 352.625 322.25 340.375 C 322.25 328 312.25 318.125 300 318.125 Z M 300 318.125 " fill-opacity="1" fill-rule="nonzero"/><path fill="#ffffff" d="M 351.5 448.75 C 349 448.75 347 446.75 347 444.25 L 347 404.75 C 347 390 334.875 377.875 320.125 377.875 L 300 377.875 C 297.5 377.875 295.5 375.875 295.5 373.375 C 295.5 370.875 297.5 368.875 300 368.875 L 320.125 368.875 C 339.875 368.875 356 384.875 356 404.75 L 356 444.25 C 356 446.75 354 448.75 351.5 448.75 Z M 351.5 448.75 " fill-opacity="1" fill-rule="nonzero"/><path fill="#ffffff" d="M 326.875 446.375 C 324.375 446.375 322.375 444.375 322.375 441.875 L 322.375 403.75 C 322.375 401.25 324.375 399.25 326.875 399.25 C 329.375 399.25 331.375 401.25 331.375 403.75 L 331.375 441.875 C 331.375 444.375 329.375 446.375 326.875 446.375 Z M 326.875 446.375 " fill-opacity="1" fill-rule="nonzero"/><path fill="#ffffff" d="M 300 371.5 C 282.875 371.5 268.75 357.5 268.75 340.25 C 268.75 323.125 282.75 309 300 309 C 317.125 309 331.25 323 331.25 340.25 C 331.25 357.5 317.125 371.5 300 371.5 Z M 300 318.125 C 287.75 318.125 277.75 328.125 277.75 340.375 C 277.75 352.625 287.75 362.625 300 362.625 C 312.25 362.625 322.25 352.625 322.25 340.375 C 322.25 328 312.25 318.125 300 318.125 Z M 300 318.125 " fill-opacity="1" fill-rule="nonzero"/><path fill="#ffffff" d="M 248.5 448.75 C 246 448.75 244 446.75 244 444.25 L 244 404.75 C 244 385 260 368.875 279.875 368.875 L 300 368.875 C 302.5 368.875 304.5 370.875 304.5 373.375 C 304.5 375.875 302.5 377.875 300 377.875 L 279.875 377.875 C 265.125 377.875 253 390 253 404.75 L 253 444.25 C 253 446.75 251 448.75 248.5 448.75 Z M 248.5 448.75 " fill-opacity="1" fill-rule="nonzero"/><path fill="#ffffff" d="M 273.125 446.375 C 270.625 446.375 268.625 444.375 268.625 441.875 L 268.625 403.75 C 268.625 401.25 270.625 399.25 273.125 399.25 C 275.625 399.25 277.625 401.25 277.625 403.75 L 277.625 441.875 C 277.625 444.375 275.625 446.375 273.125 446.375 Z M 273.125 446.375 " fill-opacity="1" fill-rule="nonzero"/><path fill="#ffffff" d="M 403 254.125 C 385.875 254.125 371.75 240.125 371.75 222.875 C 371.75 205.75 385.75 191.625 403 191.625 C 420.125 191.625 434.25 205.625 434.25 222.875 C 434.125 240.125 420.25 254.125 403 254.125 Z M 403 200.75 C 390.75 200.75 380.75 210.75 380.75 223 C 380.75 235.25 390.75 245.25 403 245.25 C 415.25 245.25 425.25 235.25 425.25 223 C 425.125 210.625 415.25 200.75 403 200.75 Z M 403 200.75 " fill-opacity="1" fill-rule="nonzero"/><path fill="#ffffff" d="M 454.5 331.375 C 452 331.375 450 329.375 450 326.875 L 450 287.5 C 450 272.75 437.875 260.625 423.125 260.625 L 403 260.625 C 400.5 260.625 398.5 258.625 398.5 256.125 C 398.5 253.625 400.5 251.625 403 251.625 L 423.125 251.625 C 442.875 251.625 459 267.625 459 287.5 L 459 327 C 459 329.375 457 331.375 454.5 331.375 Z M 454.5 331.375 " fill-opacity="1" fill-rule="nonzero"/><path fill="#ffffff" d="M 429.875 329.125 C 427.375 329.125 425.375 327.125 425.375 324.625 L 425.375 286.5 C 425.375 284 427.375 282 429.875 282 C 432.375 282 434.375 284 434.375 286.5 L 434.375 324.625 C 434.375 327.125 432.25 329.125 429.875 329.125 Z M 429.875 329.125 " fill-opacity="1" fill-rule="nonzero"/><path fill="#ffffff" d="M 403 254.125 C 385.875 254.125 371.75 240.125 371.75 222.875 C 371.75 205.75 385.75 191.625 403 191.625 C 420.125 191.625 434.25 205.625 434.25 222.875 C 434.125 240.125 420.25 254.125 403 254.125 Z M 403 200.75 C 390.75 200.75 380.75 210.75 380.75 223 C 380.75 235.25 390.75 245.25 403 245.25 C 415.25 245.25 425.25 235.25 425.25 223 C 425.125 210.625 415.25 200.75 403 200.75 Z M 403 200.75 " fill-opacity="1" fill-rule="nonzero"/><path fill="#ffffff" d="M 351.5 331.375 C 349 331.375 347 329.375 347 326.875 L 347 287.5 C 347 267.75 363 251.625 382.875 251.625 L 403 251.625 C 405.5 251.625 407.5 253.625 407.5 256.125 C 407.5 258.625 405.5 260.625 403 260.625 L 382.875 260.625 C 368.125 260.625 356 272.75 356 287.5 L 356 327 C 356 329.375 354 331.375 351.5 331.375 Z M 351.5 331.375 " fill-opacity="1" fill-rule="nonzero"/><path fill="#ffffff" d="M 376.25 329.125 C 373.75 329.125 371.75 327.125 371.75 324.625 L 371.75 286.5 C 371.75 284 373.75 282 376.25 282 C 378.75 282 380.75 284 380.75 286.5 L 380.75 324.625 C 380.75 327.125 378.625 329.125 376.25 329.125 Z M 376.25 329.125 " fill-opacity="1" fill-rule="nonzero"/><path fill="#ffffff" d="M 300 208.25 C 284.375 208.25 271.5 195.5 271.5 179.75 C 271.5 164.125 284.25 151.25 300 151.25 C 315.75 151.25 328.5 164 328.5 179.75 C 328.5 195.5 315.625 208.25 300 208.25 Z M 300 160.25 C 289.25 160.25 280.5 169 280.5 179.75 C 280.5 190.5 289.25 199.25 300 199.25 C 310.75 199.25 319.5 190.5 319.5 179.75 C 319.5 169 310.75 160.25 300 160.25 Z M 300 160.25 " fill-opacity="1" fill-rule="nonzero"/><path fill="#ffffff" d="M 346.25 264.625 C 343.75 264.625 341.75 262.625 341.75 260.125 L 341.75 231.875 C 341.75 222 331.125 214 318.125 214 L 300 214 C 297.5 214 295.5 212 295.5 209.5 C 295.5 207 297.5 205 300 205 L 318.125 205 C 336.125 205 350.75 217.125 350.75 231.875 L 350.75 260.125 C 350.75 262.625 348.75 264.625 346.25 264.625 Z M 346.25 264.625 " fill-opacity="1" fill-rule="nonzero"/><path fill="#ffffff" d="M 324.125 263 C 321.625 263 319.625 261 319.625 258.5 L 319.625 231.25 C 319.625 228.75 321.625 226.75 324.125 226.75 C 326.625 226.75 328.625 228.75 328.625 231.25 L 328.625 258.5 C 328.625 261 326.5 263 324.125 263 Z M 324.125 263 " fill-opacity="1" fill-rule="nonzero"/><path fill="#ffffff" d="M 300 208.25 C 284.375 208.25 271.5 195.5 271.5 179.75 C 271.5 164.125 284.25 151.25 300 151.25 C 315.75 151.25 328.5 164 328.5 179.75 C 328.5 195.5 315.625 208.25 300 208.25 Z M 300 160.25 C 289.25 160.25 280.5 169 280.5 179.75 C 280.5 190.5 289.25 199.25 300 199.25 C 310.75 199.25 319.5 190.5 319.5 179.75 C 319.5 169 310.75 160.25 300 160.25 Z M 300 160.25 " fill-opacity="1" fill-rule="nonzero"/><path fill="#ffffff" d="M 253.75 264.625 C 251.25 264.625 249.25 262.625 249.25 260.125 L 249.25 231.875 C 249.25 217 263.875 205 281.875 205 L 300 205 C 302.5 205 304.5 207 304.5 209.5 C 304.5 212 302.5 214 300 214 L 281.875 214 C 268.875 214 258.25 222 258.25 231.875 L 258.25 260.125 C 258.25 262.625 256.25 264.625 253.75 264.625 Z M 253.75 264.625 " fill-opacity="1" fill-rule="nonzero"/><path fill="#ffffff" d="M 275.875 263 C 273.375 263 271.375 261 271.375 258.5 L 271.375 231.25 C 271.375 228.75 273.375 226.75 275.875 226.75 C 278.375 226.75 280.375 228.75 280.375 231.25 L 280.375 258.5 C 280.375 261 278.375 263 275.875 263 Z M 275.875 263 " fill-opacity="1" fill-rule="nonzero"/><path fill="#ffffff" d="M 366.5 384.875 C 364.875 384.875 363.375 384 362.5 382.5 C 361.25 380.375 362.25 377.5 364.375 376.375 C 374.75 370.875 388.875 360.625 396.75 342.875 C 399.125 337.625 400.75 332 401.75 326.25 C 402.125 323.75 404.5 322.125 406.875 322.5 C 409.375 322.875 411 325.25 410.625 327.625 C 409.625 334.25 407.75 340.625 405 346.625 C 396 366.625 380.25 378.25 368.625 384.375 C 367.875 384.625 367.25 384.875 366.5 384.875 Z M 366.5 384.875 " fill-opacity="1" fill-rule="nonzero"/><path fill="#ffffff" d="M 351.5 299.875 C 350.125 299.875 348.625 299.25 347.75 297.875 C 343.125 290.875 324.625 280.5 300 280.5 C 297.5 280.5 295.5 278.5 295.5 276 C 295.5 273.5 297.5 271.5 300 271.5 C 325.625 271.5 348.25 282.375 355.25 293 C 356.625 295.125 356.125 297.875 354 299.25 C 353.25 299.625 352.375 299.875 351.5 299.875 Z M 351.5 299.875 " fill-opacity="1" fill-rule="nonzero"/><path fill="#ffffff" d="M 300 371.5 C 282.875 371.5 268.75 357.5 268.75 340.25 C 268.75 323.125 282.75 309 300 309 C 317.125 309 331.25 323 331.25 340.25 C 331.25 357.5 317.125 371.5 300 371.5 Z M 300 318.125 C 287.75 318.125 277.75 328.125 277.75 340.375 C 277.75 352.625 287.75 362.625 300 362.625 C 312.25 362.625 322.25 352.625 322.25 340.375 C 322.25 328 312.25 318.125 300 318.125 Z M 300 318.125 " fill-opacity="1" fill-rule="nonzero"/><path fill="#ffffff" d="M 248.5 448.75 C 246 448.75 244 446.75 244 444.25 L 244 404.75 C 244 385 260 368.875 279.875 368.875 L 300 368.875 C 302.5 368.875 304.5 370.875 304.5 373.375 C 304.5 375.875 302.5 377.875 300 377.875 L 279.875 377.875 C 265.125 377.875 253 390 253 404.75 L 253 444.25 C 253 446.75 251 448.75 248.5 448.75 Z M 248.5 448.75 " fill-opacity="1" fill-rule="nonzero"/><path fill="#ffffff" d="M 273.125 446.375 C 270.625 446.375 268.625 444.375 268.625 441.875 L 268.625 403.75 C 268.625 401.25 270.625 399.25 273.125 399.25 C 275.625 399.25 277.625 401.25 277.625 403.75 L 277.625 441.875 C 277.625 444.375 275.625 446.375 273.125 446.375 Z M 273.125 446.375 " fill-opacity="1" fill-rule="nonzero"/><path fill="#ffffff" d="M 300 371.5 C 282.875 371.5 268.75 357.5 268.75 340.25 C 268.75 323.125 282.75 309 300 309 C 317.125 309 331.25 323 331.25 340.25 C 331.25 357.5 317.125 371.5 300 371.5 Z M 300 318.125 C 287.75 318.125 277.75 328.125 277.75 340.375 C 277.75 352.625 287.75 362.625 300 362.625 C 312.25 362.625 322.25 352.625 322.25 340.375 C 322.25 328 312.25 318.125 300 318.125 Z M 300 318.125 " fill-opacity="1" fill-rule="nonzero"/><path fill="#ffffff" d="M 351.5 448.75 C 349 448.75 347 446.75 347 444.25 L 347 404.75 C 347 390 334.875 377.875 320.125 377.875 L 300 377.875 C 297.5 377.875 295.5 375.875 295.5 373.375 C 295.5 370.875 297.5 368.875 300 368.875 L 320.125 368.875 C 339.875 368.875 356 384.875 356 404.75 L 356 444.25 C 356 446.75 354 448.75 351.5 448.75 Z M 351.5 448.75 " fill-opacity="1" fill-rule="nonzero"/><path fill="#ffffff" d="M 326.875 446.375 C 324.375 446.375 322.375 444.375 322.375 441.875 L 322.375 403.75 C 322.375 401.25 324.375 399.25 326.875 399.25 C 329.375 399.25 331.375 401.25 331.375 403.75 L 331.375 441.875 C 331.375 444.375 329.375 446.375 326.875 446.375 Z M 326.875 446.375 " fill-opacity="1" fill-rule="nonzero"/><path fill="#ffffff" d="M 197 254.125 C 179.875 254.125 165.75 240.125 165.75 222.875 C 165.75 205.75 179.75 191.625 197 191.625 C 214.125 191.625 228.25 205.625 228.25 222.875 C 228.25 240.125 214.25 254.125 197 254.125 Z M 197 200.75 C 184.75 200.75 174.75 210.75 174.75 223 C 174.75 235.25 184.75 245.25 197 245.25 C 209.25 245.25 219.25 235.25 219.25 223 C 219.25 210.625 209.25 200.75 197 200.75 Z M 197 200.75 " fill-opacity="1" fill-rule="nonzero"/><path fill="#ffffff" d="M 145.5 331.375 C 143 331.375 141 329.375 141 326.875 L 141 287.5 C 141 267.75 157 251.625 176.875 251.625 L 197 251.625 C 199.5 251.625 201.5 253.625 201.5 256.125 C 201.5 258.625 199.5 260.625 197 260.625 L 176.875 260.625 C 162 260.625 150 272.625 150 287.5 L 150 327 C 150 329.375 148 331.375 145.5 331.375 Z M 145.5 331.375 " fill-opacity="1" fill-rule="nonzero"/><path fill="#ffffff" d="M 170.125 329.125 C 167.625 329.125 165.625 327.125 165.625 324.625 L 165.625 286.5 C 165.625 284 167.625 282 170.125 282 C 172.625 282 174.625 284 174.625 286.5 L 174.625 324.625 C 174.625 327.125 172.625 329.125 170.125 329.125 Z M 170.125 329.125 " fill-opacity="1" fill-rule="nonzero"/><path fill="#ffffff" d="M 197 254.125 C 179.875 254.125 165.75 240.125 165.75 222.875 C 165.75 205.75 179.75 191.625 197 191.625 C 214.125 191.625 228.25 205.625 228.25 222.875 C 228.25 240.125 214.25 254.125 197 254.125 Z M 197 200.75 C 184.75 200.75 174.75 210.75 174.75 223 C 174.75 235.25 184.75 245.25 197 245.25 C 209.25 245.25 219.25 235.25 219.25 223 C 219.25 210.625 209.25 200.75 197 200.75 Z M 197 200.75 " fill-opacity="1" fill-rule="nonzero"/><path fill="#ffffff" d="M 248.5 331.375 C 246 331.375 244 329.375 244 326.875 L 244 287.5 C 244 272.75 231.875 260.625 217.125 260.625 L 197 260.625 C 194.5 260.625 192.5 258.625 192.5 256.125 C 192.5 253.625 194.5 251.625 197 251.625 L 217.125 251.625 C 236.875 251.625 253 267.625 253 287.5 L 253 327 C 253 329.375 251 331.375 248.5 331.375 Z M 248.5 331.375 " fill-opacity="1" fill-rule="nonzero"/><path fill="#ffffff" d="M 223.75 329.125 C 221.25 329.125 219.25 327.125 219.25 324.625 L 219.25 286.5 C 219.25 284 221.25 282 223.75 282 C 226.25 282 228.25 284 228.25 286.5 L 228.25 324.625 C 228.25 327.125 226.25 329.125 223.75 329.125 Z M 223.75 329.125 " fill-opacity="1" fill-rule="nonzero"/><path fill="#ffffff" d="M 300 208.25 C 284.375 208.25 271.5 195.5 271.5 179.75 C 271.5 164.125 284.25 151.25 300 151.25 C 315.75 151.25 328.5 164 328.5 179.75 C 328.5 195.5 315.625 208.25 300 208.25 Z M 300 160.25 C 289.25 160.25 280.5 169 280.5 179.75 C 280.5 190.5 289.25 199.25 300 199.25 C 310.75 199.25 319.5 190.5 319.5 179.75 C 319.5 169 310.75 160.25 300 160.25 Z M 300 160.25 " fill-opacity="1" fill-rule="nonzero"/><path fill="#ffffff" d="M 253.75 264.625 C 251.25 264.625 249.25 262.625 249.25 260.125 L 249.25 231.875 C 249.25 217 263.875 205 281.875 205 L 300 205 C 302.5 205 304.5 207 304.5 209.5 C 304.5 212 302.5 214 300 214 L 281.875 214 C 268.875 214 258.25 222 258.25 231.875 L 258.25 260.125 C 258.25 262.625 256.25 264.625 253.75 264.625 Z M 253.75 264.625 " fill-opacity="1" fill-rule="nonzero"/><path fill="#ffffff" d="M 275.875 263 C 273.375 263 271.375 261 271.375 258.5 L 271.375 231.25 C 271.375 228.75 273.375 226.75 275.875 226.75 C 278.375 226.75 280.375 228.75 280.375 231.25 L 280.375 258.5 C 280.375 261 278.375 263 275.875 263 Z M 275.875 263 " fill-opacity="1" fill-rule="nonzero"/><path fill="#ffffff" d="M 300 208.25 C 284.375 208.25 271.5 195.5 271.5 179.75 C 271.5 164.125 284.25 151.25 300 151.25 C 315.75 151.25 328.5 164 328.5 179.75 C 328.5 195.5 315.625 208.25 300 208.25 Z M 300 160.25 C 289.25 160.25 280.5 169 280.5 179.75 C 280.5 190.5 289.25 199.25 300 199.25 C 310.75 199.25 319.5 190.5 319.5 179.75 C 319.5 169 310.75 160.25 300 160.25 Z M 300 160.25 " fill-opacity="1" fill-rule="nonzero"/><path fill="#ffffff" d="M 346.25 264.625 C 343.75 264.625 341.75 262.625 341.75 260.125 L 341.75 231.875 C 341.75 222 331.125 214 318.125 214 L 300 214 C 297.5 214 295.5 212 295.5 209.5 C 295.5 207 297.5 205 300 205 L 318.125 205 C 336.125 205 350.75 217.125 350.75 231.875 L 350.75 260.125 C 350.75 262.625 348.75 264.625 346.25 264.625 Z M 346.25 264.625 " fill-opacity="1" fill-rule="nonzero"/><path fill="#ffffff" d="M 324.125 263 C 321.625 263 319.625 261 319.625 258.5 L 319.625 231.25 C 319.625 228.75 321.625 226.75 324.125 226.75 C 326.625 226.75 328.625 228.75 328.625 231.25 L 328.625 258.5 C 328.625 261 326.5 263 324.125 263 Z M 324.125 263 " fill-opacity="1" fill-rule="nonzero"/><path fill="#ffffff" d="M 233.5 384.875 C 232.875 384.875 232.125 384.75 231.375 384.375 C 219.75 378.25 203.875 366.625 195 346.625 C 192.25 340.625 190.375 334.25 189.375 327.625 C 189 325.125 190.625 322.875 193.125 322.5 C 195.625 322.125 197.875 323.75 198.25 326.25 C 199.125 332 200.75 337.625 203.25 342.875 C 211.25 360.625 225.25 370.875 235.625 376.375 C 237.75 377.625 238.625 380.25 237.5 382.5 C 236.75 383.875 235.125 384.875 233.5 384.875 Z M 233.5 384.875 " fill-opacity="1" fill-rule="nonzero"/><path fill="#ffffff" d="M 248.5 299.875 C 247.625 299.875 246.75 299.625 246 299.125 C 243.875 297.75 243.375 294.875 244.75 292.875 C 251.75 282.375 274.375 271.375 300 271.375 C 302.5 271.375 304.5 273.375 304.5 275.875 C 304.5 278.375 302.5 280.375 300 280.375 C 275.375 280.375 257 290.75 252.25 297.75 C 251.375 299.125 250 299.875 248.5 299.875 Z M 248.5 299.875 " fill-opacity="1" fill-rule="nonzero"/></svg>