<svg xmlns="http://www.w3.org/2000/svg" xmlns:xlink="http://www.w3.org/1999/xlink" width="800" zoomAndPan="magnify" viewBox="0 0 600 599.999999" height="800" preserveAspectRatio="xMidYMid meet" version="1.0"><path fill="#0ea5e9" d="M 512.703125 87.335938 C 516.15625 90.789062 519.523438 94.328125 522.804688 97.949219 C 526.085938 101.570312 529.277344 105.265625 532.375 109.042969 C 535.476562 112.820312 538.480469 116.671875 541.390625 120.597656 C 544.300781 124.519531 547.113281 128.515625 549.828125 132.578125 C 552.542969 136.640625 555.15625 140.765625 557.667969 144.957031 C 560.179688 149.148438 562.589844 153.398438 564.890625 157.707031 C 567.195312 162.015625 569.390625 166.378906 571.480469 170.792969 C 573.570312 175.210938 575.546875 179.675781 577.417969 184.191406 C 579.289062 188.707031 581.046875 193.261719 582.691406 197.863281 C 584.335938 202.464844 585.871094 207.101562 587.289062 211.777344 C 588.707031 216.453125 590.007812 221.160156 591.195312 225.898438 C 592.382812 230.636719 593.453125 235.40625 594.40625 240.195312 C 595.359375 244.988281 596.195312 249.800781 596.914062 254.632812 C 597.628906 259.46875 598.226562 264.316406 598.707031 269.175781 C 599.183594 274.039062 599.542969 278.910156 599.785156 283.792969 C 600.023438 288.671875 600.144531 293.554688 600.144531 298.441406 C 600.144531 303.324219 600.023438 308.207031 599.785156 313.089844 C 599.542969 317.96875 599.183594 322.839844 598.707031 327.703125 C 598.226562 332.566406 597.628906 337.414062 596.914062 342.246094 C 596.195312 347.078125 595.359375 351.890625 594.40625 356.683594 C 593.453125 361.476562 592.382812 366.242188 591.195312 370.980469 C 590.007812 375.71875 588.707031 380.429688 587.289062 385.105469 C 585.871094 389.777344 584.335938 394.417969 582.691406 399.015625 C 581.046875 403.617188 579.289062 408.175781 577.417969 412.6875 C 575.546875 417.203125 573.570312 421.667969 571.480469 426.085938 C 569.390625 430.503906 567.195312 434.863281 564.890625 439.175781 C 562.589844 443.484375 560.179688 447.734375 557.667969 451.921875 C 555.15625 456.113281 552.542969 460.242188 549.828125 464.304688 C 547.113281 468.367188 544.300781 472.359375 541.390625 476.285156 C 538.480469 480.207031 535.476562 484.058594 532.375 487.835938 C 529.277344 491.613281 526.085938 495.3125 522.804688 498.933594 C 519.523438 502.550781 516.15625 506.089844 512.703125 509.542969 C 509.246094 513 505.707031 516.367188 502.089844 519.648438 C 498.46875 522.929688 494.769531 526.121094 490.992188 529.21875 C 487.214844 532.320312 483.367188 535.324219 479.441406 538.234375 C 475.515625 541.144531 471.523438 543.957031 467.460938 546.671875 C 463.398438 549.386719 459.269531 552 455.082031 554.511719 C 450.890625 557.023438 446.640625 559.429688 442.332031 561.734375 C 438.023438 564.039062 433.660156 566.234375 429.242188 568.324219 C 424.824219 570.414062 420.359375 572.390625 415.84375 574.261719 C 411.332031 576.132812 406.773438 577.890625 402.175781 579.535156 C 397.574219 581.179688 392.9375 582.714844 388.261719 584.132812 C 383.585938 585.550781 378.878906 586.851562 374.136719 588.039062 C 369.398438 589.226562 364.632812 590.296875 359.839844 591.25 C 355.046875 592.203125 350.234375 593.039062 345.402344 593.753906 C 340.570312 594.472656 335.722656 595.070312 330.859375 595.550781 C 325.996094 596.027344 321.125 596.386719 316.246094 596.628906 C 311.367188 596.867188 306.484375 596.988281 301.597656 596.988281 C 296.710938 596.988281 291.828125 596.867188 286.949219 596.628906 C 282.066406 596.386719 277.195312 596.027344 272.335938 595.550781 C 267.472656 595.070312 262.625 594.472656 257.789062 593.753906 C 252.957031 593.039062 248.144531 592.203125 243.351562 591.25 C 238.5625 590.296875 233.796875 589.226562 229.054688 588.039062 C 224.316406 586.851562 219.609375 585.550781 214.933594 584.132812 C 210.257812 582.714844 205.621094 581.179688 201.019531 579.535156 C 196.417969 577.890625 191.863281 576.132812 187.347656 574.261719 C 182.832031 572.390625 178.367188 570.414062 173.953125 568.324219 C 169.535156 566.234375 165.171875 564.039062 160.863281 561.734375 C 156.554688 559.429688 152.304688 557.023438 148.113281 554.511719 C 143.921875 552 139.796875 549.386719 135.734375 546.671875 C 131.671875 543.957031 127.675781 541.144531 123.753906 538.234375 C 119.828125 535.324219 115.976562 532.320312 112.199219 529.21875 C 108.421875 526.121094 104.726562 522.929688 101.105469 519.648438 C 97.484375 516.367188 93.945312 513 90.492188 509.542969 C 87.039062 506.089844 83.667969 502.550781 80.386719 498.933594 C 77.105469 495.3125 73.917969 491.613281 70.816406 487.835938 C 67.71875 484.058594 64.710938 480.207031 61.800781 476.285156 C 58.890625 472.359375 56.078125 468.367188 53.363281 464.304688 C 50.648438 460.242188 48.035156 456.113281 45.523438 451.921875 C 43.011719 447.734375 40.605469 443.484375 38.300781 439.175781 C 36 434.863281 33.800781 430.503906 31.714844 426.085938 C 29.625 421.667969 27.644531 417.203125 25.777344 412.6875 C 23.90625 408.175781 22.148438 403.617188 20.5 399.015625 C 18.855469 394.417969 17.324219 389.777344 15.90625 385.105469 C 14.488281 380.429688 13.183594 375.71875 11.996094 370.980469 C 10.808594 366.242188 9.738281 361.476562 8.785156 356.683594 C 7.832031 351.890625 7 347.078125 6.28125 342.246094 C 5.5625 337.414062 4.964844 332.566406 4.488281 327.703125 C 4.007812 322.839844 3.648438 317.96875 3.410156 313.089844 C 3.167969 308.207031 3.050781 303.324219 3.050781 298.441406 C 3.050781 293.554688 3.167969 288.671875 3.410156 283.789062 C 3.648438 278.910156 4.007812 274.039062 4.488281 269.175781 C 4.964844 264.316406 5.5625 259.46875 6.28125 254.632812 C 7 249.800781 7.832031 244.988281 8.785156 240.195312 C 9.738281 235.40625 10.808594 230.636719 11.996094 225.898438 C 13.183594 221.160156 14.488281 216.453125 15.90625 211.777344 C 17.324219 207.101562 18.855469 202.464844 20.5 197.863281 C 22.148438 193.261719 23.90625 188.707031 25.777344 184.191406 C 27.644531 179.675781 29.625 175.210938 31.714844 170.792969 C 33.800781 166.378906 36 162.015625 38.300781 157.707031 C 40.605469 153.398438 43.011719 149.148438 45.523438 144.957031 C 48.035156 140.765625 50.648438 136.640625 53.363281 132.578125 C 56.078125 128.515625 58.890625 124.519531 61.800781 120.597656 C 64.710938 116.671875 67.71875 112.820312 70.816406 109.042969 C 73.917969 105.265625 77.105469 101.570312 80.386719 97.949219 C 83.667969 94.328125 87.039062 90.789062 90.492188 87.335938 C 93.945312 83.878906 97.484375 80.511719 101.105469 77.230469 C 104.726562 73.949219 108.421875 70.761719 112.199219 67.660156 C 115.976562 64.5625 119.828125 61.554688 123.753906 58.644531 C 127.675781 55.734375 131.671875 52.921875 135.734375 50.207031 C 139.796875 47.492188 143.921875 44.878906 148.113281 42.367188 C 152.304688 39.855469 156.554688 37.449219 160.863281 35.144531 C 165.171875 32.84375 169.535156 30.644531 173.953125 28.558594 C 178.367188 26.46875 182.832031 24.488281 187.347656 22.617188 C 191.863281 20.75 196.417969 18.992188 201.019531 17.34375 C 205.621094 15.699219 210.257812 14.167969 214.933594 12.75 C 219.609375 11.332031 224.316406 10.027344 229.054688 8.839844 C 233.796875 7.652344 238.5625 6.582031 243.351562 5.628906 C 248.144531 4.675781 252.957031 3.839844 257.789062 3.125 C 262.625 2.40625 267.472656 1.808594 272.335938 1.332031 C 277.195312 0.851562 282.066406 0.492188 286.949219 0.253906 C 291.828125 0.0117188 296.710938 -0.105469 301.597656 -0.105469 C 306.484375 -0.105469 311.367188 0.0117188 316.246094 0.253906 C 321.125 0.492188 325.996094 0.851562 330.859375 1.332031 C 335.722656 1.808594 340.570312 2.40625 345.402344 3.125 C 350.234375 3.839844 355.046875 4.675781 359.839844 5.628906 C 364.632812 6.582031 369.398438 7.652344 374.136719 8.839844 C 378.878906 10.027344 383.585938 11.332031 388.261719 12.75 C 392.9375 14.167969 397.574219 15.699219 402.175781 17.34375 C 406.773438 18.992188 411.332031 20.75 415.84375 22.617188 C 420.359375 24.488281 424.824219 26.46875 429.242188 28.558594 C 433.660156 30.644531 438.023438 32.84375 442.332031 35.144531 C 446.640625 37.449219 450.890625 39.855469 455.082031 42.367188 C 459.269531 44.878906 463.398438 47.492188 467.460938 50.207031 C 471.523438 52.921875 475.515625 55.734375 479.441406 58.644531 C 483.367188 61.554688 487.214844 64.558594 490.992188 67.660156 C 494.769531 70.757812 498.46875 73.949219 502.089844 77.230469 C 505.707031 80.511719 509.246094 83.878906 512.703125 87.335938 Z M 512.703125 87.335938 " fill-opacity="1" fill-rule="nonzero"/><path fill="#ffffff" d="M 433.441406 212.816406 C 429.617188 212.816406 426.632812 209.710938 426.632812 206.007812 L 426.632812 195.738281 L 326.796875 195.738281 C 322.976562 195.738281 319.992188 192.632812 319.992188 188.933594 L 319.992188 144.984375 C 319.992188 141.164062 323.097656 138.179688 326.796875 138.179688 L 426.632812 138.179688 L 426.632812 127.910156 C 426.632812 124.085938 429.738281 121.101562 433.441406 121.101562 C 434.992188 121.101562 436.546875 121.699219 437.738281 122.652344 L 485.269531 161.703125 C 488.132812 164.09375 488.613281 168.390625 486.222656 171.257812 C 485.984375 171.617188 485.625 171.972656 485.269531 172.214844 L 437.738281 211.261719 C 436.546875 212.339844 434.992188 212.816406 433.441406 212.816406 Z M 333.605469 182.125 L 433.441406 182.125 C 437.261719 182.125 440.246094 185.230469 440.246094 188.933594 L 440.246094 191.558594 L 470.222656 166.957031 L 440.246094 142.359375 L 440.246094 144.984375 C 440.246094 148.808594 437.140625 151.792969 433.441406 151.792969 L 333.605469 151.792969 Z M 333.605469 182.125 " fill-opacity="1" fill-rule="nonzero"/><path fill="#ffffff" d="M 258.96875 412.605469 L 223.261719 412.605469 C 219.441406 412.605469 216.453125 409.5 216.453125 405.796875 C 216.453125 401.976562 219.558594 398.992188 223.261719 398.992188 L 258.96875 398.992188 C 266.253906 398.753906 272.105469 392.664062 271.867188 385.378906 C 271.625 378.332031 266.015625 372.601562 258.96875 372.480469 L 243.324219 372.480469 C 228.515625 372.480469 216.453125 360.417969 216.453125 345.609375 C 216.453125 330.804688 228.515625 318.742188 243.324219 318.742188 L 279.03125 318.742188 C 282.851562 318.742188 285.835938 321.847656 285.835938 325.546875 C 285.835938 329.25 282.734375 332.355469 279.03125 332.355469 L 243.324219 332.355469 C 236.039062 332.355469 230.070312 338.328125 230.070312 345.609375 C 230.070312 352.894531 236.039062 358.867188 243.324219 358.867188 L 258.96875 358.867188 C 273.777344 359.105469 285.71875 371.40625 285.359375 386.214844 C 285.242188 400.664062 273.539062 412.367188 258.96875 412.605469 Z M 258.96875 412.605469 " fill-opacity="1" fill-rule="nonzero"/><path fill="#ffffff" d="M 251.207031 426.21875 C 247.382812 426.21875 244.398438 423.113281 244.398438 419.414062 L 244.398438 405.796875 C 244.398438 401.976562 247.503906 398.992188 251.207031 398.992188 C 255.027344 398.992188 258.011719 402.097656 258.011719 405.796875 L 258.011719 419.414062 C 258.011719 423.113281 254.90625 426.21875 251.207031 426.21875 Z M 251.207031 426.21875 " fill-opacity="1" fill-rule="nonzero"/><path fill="#ffffff" d="M 251.207031 332.355469 C 247.382812 332.355469 244.398438 329.25 244.398438 325.546875 L 244.398438 311.933594 C 244.398438 308.113281 247.503906 305.128906 251.207031 305.128906 C 255.027344 305.128906 258.011719 308.234375 258.011719 311.933594 L 258.011719 325.546875 C 258.011719 329.25 254.90625 332.355469 251.207031 332.355469 Z M 251.207031 332.355469 " fill-opacity="1" fill-rule="nonzero"/><path fill="#ffffff" d="M 251.207031 501.453125 C 176.328125 501.453125 115.425781 440.550781 115.425781 365.671875 C 115.425781 290.796875 176.328125 229.894531 251.207031 229.894531 C 326.082031 229.894531 386.984375 290.796875 386.984375 365.671875 C 386.984375 440.550781 326.082031 501.453125 251.207031 501.453125 Z M 251.207031 243.507812 C 183.851562 243.507812 129.039062 298.320312 129.039062 365.671875 C 129.039062 433.027344 183.851562 487.839844 251.207031 487.839844 C 318.558594 487.839844 373.371094 433.027344 373.371094 365.671875 C 373.371094 298.320312 318.558594 243.507812 251.207031 243.507812 Z M 251.207031 243.507812 " fill-opacity="1" fill-rule="nonzero"/><path fill="#ffffff" d="M 251.207031 461.089844 C 198.421875 461.089844 155.667969 418.335938 155.667969 365.554688 C 155.667969 312.769531 198.421875 270.019531 251.207031 270.019531 C 303.988281 270.019531 346.742188 312.769531 346.742188 365.554688 C 346.621094 418.335938 303.871094 461.089844 251.207031 461.089844 Z M 251.207031 283.75 C 205.945312 283.75 169.402344 320.414062 169.402344 365.554688 C 169.402344 410.8125 206.066406 447.355469 251.207031 447.355469 C 296.347656 447.355469 333.007812 410.695312 333.007812 365.554688 C 333.007812 320.53125 296.347656 283.871094 251.207031 283.75 Z M 251.207031 283.75 " fill-opacity="1" fill-rule="nonzero"/><path fill="#ffffff" d="M 356.652344 109.039062 L 321.902344 109.039062 C 318.082031 109.039062 315.09375 105.933594 315.09375 102.234375 C 315.09375 98.53125 318.199219 95.425781 321.902344 95.425781 L 356.652344 95.425781 C 360.476562 95.425781 363.460938 98.53125 363.460938 102.234375 C 363.460938 105.933594 360.476562 109.039062 356.652344 109.039062 Z M 356.652344 109.039062 " fill-opacity="1" fill-rule="nonzero"/><path fill="#ffffff" d="M 300.527344 140.328125 L 265.773438 140.328125 C 261.953125 140.328125 258.96875 137.222656 258.96875 133.519531 C 258.96875 129.820312 262.074219 126.714844 265.773438 126.714844 L 300.527344 126.714844 C 304.347656 126.714844 307.332031 129.820312 307.332031 133.519531 C 307.332031 137.222656 304.347656 140.328125 300.527344 140.328125 Z M 300.527344 140.328125 " fill-opacity="1" fill-rule="nonzero"/><path fill="#ffffff" d="M 365.96875 234.667969 L 331.21875 234.667969 C 327.394531 234.667969 324.410156 231.566406 324.410156 227.863281 C 324.410156 224.160156 327.515625 221.054688 331.21875 221.054688 L 365.96875 221.054688 C 369.789062 221.054688 372.773438 224.160156 372.773438 227.863281 C 372.773438 231.566406 369.789062 234.667969 365.96875 234.667969 Z M 365.96875 234.667969 " fill-opacity="1" fill-rule="nonzero"/><path fill="#ffffff" d="M 290.496094 217.234375 L 255.742188 217.234375 C 251.921875 217.234375 248.9375 214.128906 248.9375 210.425781 C 248.9375 206.726562 252.042969 203.621094 255.742188 203.621094 L 290.496094 203.621094 C 294.316406 203.621094 297.300781 206.726562 297.300781 210.425781 C 297.300781 214.128906 294.316406 217.234375 290.496094 217.234375 Z M 290.496094 217.234375 " fill-opacity="1" fill-rule="nonzero"/><path fill="#ffffff" d="M 229.589844 173.765625 L 194.839844 173.765625 C 191.019531 173.765625 188.03125 170.660156 188.03125 166.957031 C 188.03125 163.257812 191.136719 160.152344 194.839844 160.152344 L 229.589844 160.152344 C 233.414062 160.152344 236.398438 163.257812 236.398438 166.957031 C 236.398438 170.660156 233.414062 173.765625 229.589844 173.765625 Z M 229.589844 173.765625 " fill-opacity="1" fill-rule="nonzero"/></svg>