<svg xmlns="http://www.w3.org/2000/svg" xmlns:xlink="http://www.w3.org/1999/xlink" width="800" zoomAndPan="magnify" viewBox="0 0 600 599.999999" height="800" preserveAspectRatio="xMidYMid meet" version="1.0"><defs><clipPath id="a254b797be"><path d="M 283.753906 444 L 503.128906 444 L 503.128906 556.46875 L 283.753906 556.46875 Z M 283.753906 444 " clip-rule="nonzero"/></clipPath><clipPath id="44e8216062"><path d="M 283.753906 333.34375 L 503.128906 333.34375 L 503.128906 553 L 283.753906 553 Z M 283.753906 333.34375 " clip-rule="nonzero"/></clipPath><clipPath id="0cfcf1b553"><rect x="0" width="600" y="0" height="600"/></clipPath></defs><g transform="matrix(1, 0, 0, 1, 0, -0.000000000000034788)"><g clip-path="url(#0cfcf1b553)"><path fill="#0ea5e9" d="M 600 300 C 600 304.910156 599.878906 309.816406 599.636719 314.71875 C 599.398438 319.625 599.035156 324.519531 598.554688 329.40625 C 598.074219 334.292969 597.472656 339.164062 596.753906 344.019531 C 596.03125 348.875 595.191406 353.710938 594.234375 358.527344 C 593.277344 363.34375 592.203125 368.132812 591.007812 372.894531 C 589.816406 377.65625 588.507812 382.386719 587.082031 387.085938 C 585.65625 391.785156 584.117188 396.445312 582.464844 401.066406 C 580.808594 405.691406 579.042969 410.269531 577.164062 414.804688 C 575.285156 419.339844 573.296875 423.828125 571.195312 428.265625 C 569.097656 432.703125 566.890625 437.089844 564.578125 441.417969 C 562.261719 445.75 559.84375 450.019531 557.320312 454.230469 C 554.792969 458.441406 552.167969 462.589844 549.441406 466.671875 C 546.714844 470.753906 543.886719 474.765625 540.960938 478.710938 C 538.039062 482.652344 535.019531 486.523438 531.902344 490.316406 C 528.789062 494.113281 525.582031 497.828125 522.285156 501.46875 C 518.988281 505.105469 515.605469 508.660156 512.132812 512.132812 C 508.660156 515.605469 505.105469 518.988281 501.46875 522.285156 C 497.828125 525.582031 494.113281 528.789062 490.316406 531.902344 C 486.523438 535.019531 482.652344 538.039062 478.710938 540.960938 C 474.765625 543.886719 470.753906 546.714844 466.671875 549.441406 C 462.589844 552.167969 458.441406 554.792969 454.230469 557.320312 C 450.019531 559.84375 445.75 562.261719 441.417969 564.578125 C 437.089844 566.890625 432.703125 569.097656 428.265625 571.195312 C 423.828125 573.296875 419.339844 575.285156 414.804688 577.164062 C 410.269531 579.042969 405.691406 580.808594 401.066406 582.464844 C 396.445312 584.117188 391.785156 585.65625 387.085938 587.082031 C 382.386719 588.507812 377.65625 589.816406 372.894531 591.007812 C 368.132812 592.203125 363.34375 593.277344 358.527344 594.234375 C 353.710938 595.195312 348.875 596.03125 344.019531 596.753906 C 339.164062 597.472656 334.292969 598.074219 329.40625 598.554688 C 324.519531 599.035156 319.625 599.398438 314.71875 599.636719 C 309.816406 599.878906 304.910156 600 300 600 C 295.089844 600 290.183594 599.878906 285.28125 599.636719 C 280.375 599.398438 275.480469 599.035156 270.59375 598.554688 C 265.707031 598.074219 260.835938 597.472656 255.980469 596.753906 C 251.125 596.03125 246.289062 595.191406 241.472656 594.234375 C 236.65625 593.277344 231.867188 592.203125 227.105469 591.007812 C 222.34375 589.816406 217.613281 588.507812 212.914062 587.082031 C 208.214844 585.65625 203.554688 584.117188 198.933594 582.464844 C 194.308594 580.808594 189.730469 579.042969 185.195312 577.164062 C 180.660156 575.285156 176.171875 573.296875 171.734375 571.195312 C 167.296875 569.097656 162.910156 566.890625 158.582031 564.578125 C 154.25 562.261719 149.980469 559.84375 145.769531 557.320312 C 141.558594 554.792969 137.410156 552.167969 133.328125 549.441406 C 129.246094 546.714844 125.234375 543.886719 121.289062 540.960938 C 117.347656 538.039062 113.476562 535.019531 109.683594 531.902344 C 105.886719 528.789062 102.171875 525.582031 98.53125 522.285156 C 94.894531 518.988281 91.339844 515.605469 87.867188 512.132812 C 84.394531 508.660156 81.011719 505.105469 77.714844 501.46875 C 74.417969 497.828125 71.210938 494.113281 68.097656 490.316406 C 64.980469 486.523438 61.960938 482.652344 59.039062 478.710938 C 56.113281 474.765625 53.285156 470.753906 50.558594 466.671875 C 47.832031 462.589844 45.207031 458.441406 42.679688 454.230469 C 40.15625 450.019531 37.738281 445.75 35.421875 441.417969 C 33.109375 437.089844 30.902344 432.703125 28.804688 428.265625 C 26.703125 423.828125 24.714844 419.339844 22.835938 414.804688 C 20.957031 410.269531 19.191406 405.691406 17.535156 401.066406 C 15.882812 396.445312 14.34375 391.785156 12.917969 387.085938 C 11.492188 382.386719 10.183594 377.65625 8.992188 372.894531 C 7.796875 368.132812 6.722656 363.34375 5.765625 358.527344 C 4.804688 353.710938 3.96875 348.875 3.246094 344.019531 C 2.527344 339.164062 1.925781 334.292969 1.445312 329.40625 C 0.964844 324.519531 0.601562 319.625 0.363281 314.71875 C 0.121094 309.816406 0 304.910156 0 300 C 0 295.089844 0.121094 290.183594 0.363281 285.28125 C 0.601562 280.375 0.964844 275.480469 1.445312 270.59375 C 1.925781 265.707031 2.527344 260.835938 3.246094 255.980469 C 3.96875 251.125 4.804688 246.289062 5.765625 241.472656 C 6.722656 236.65625 7.796875 231.867188 8.992188 227.105469 C 10.183594 222.34375 11.492188 217.613281 12.917969 212.914062 C 14.34375 208.214844 15.882812 203.554688 17.535156 198.933594 C 19.191406 194.308594 20.957031 189.730469 22.835938 185.195312 C 24.714844 180.660156 26.703125 176.171875 28.804688 171.734375 C 30.902344 167.296875 33.109375 162.910156 35.421875 158.582031 C 37.738281 154.25 40.15625 149.980469 42.679688 145.769531 C 45.207031 141.558594 47.832031 137.410156 50.558594 133.328125 C 53.285156 129.246094 56.113281 125.234375 59.039062 121.289062 C 61.960938 117.347656 64.980469 113.476562 68.097656 109.683594 C 71.210938 105.886719 74.417969 102.171875 77.714844 98.53125 C 81.011719 94.894531 84.394531 91.339844 87.867188 87.867188 C 91.339844 84.394531 94.894531 81.011719 98.53125 77.714844 C 102.171875 74.417969 105.886719 71.210938 109.683594 68.097656 C 113.476562 64.980469 117.347656 61.960938 121.289062 59.039062 C 125.234375 56.113281 129.246094 53.285156 133.328125 50.558594 C 137.410156 47.832031 141.558594 45.207031 145.769531 42.679688 C 149.980469 40.15625 154.25 37.738281 158.582031 35.421875 C 162.910156 33.109375 167.296875 30.902344 171.734375 28.804688 C 176.171875 26.703125 180.660156 24.714844 185.195312 22.835938 C 189.730469 20.957031 194.308594 19.191406 198.933594 17.535156 C 203.554688 15.882812 208.214844 14.34375 212.914062 12.917969 C 217.613281 11.492188 222.34375 10.183594 227.105469 8.992188 C 231.867188 7.796875 236.65625 6.722656 241.472656 5.765625 C 246.289062 4.804688 251.125 3.96875 255.980469 3.246094 C 260.835938 2.527344 265.707031 1.925781 270.59375 1.445312 C 275.480469 0.964844 280.375 0.601562 285.28125 0.363281 C 290.183594 0.121094 295.089844 0 300 0 C 304.910156 0 309.816406 0.121094 314.71875 0.363281 C 319.625 0.601562 324.519531 0.964844 329.40625 1.445312 C 334.292969 1.925781 339.164062 2.527344 344.019531 3.246094 C 348.875 3.96875 353.710938 4.804688 358.527344 5.765625 C 363.34375 6.722656 368.132812 7.796875 372.894531 8.992188 C 377.65625 10.183594 382.386719 11.492188 387.085938 12.917969 C 391.785156 14.34375 396.445312 15.882812 401.066406 17.535156 C 405.691406 19.191406 410.269531 20.957031 414.804688 22.835938 C 419.339844 24.714844 423.828125 26.703125 428.265625 28.804688 C 432.703125 30.902344 437.089844 33.109375 441.417969 35.421875 C 445.75 37.738281 450.019531 40.15625 454.230469 42.679688 C 458.441406 45.207031 462.589844 47.832031 466.671875 50.558594 C 470.753906 53.285156 474.765625 56.113281 478.710938 59.039062 C 482.652344 61.960938 486.523438 64.980469 490.316406 68.097656 C 494.113281 71.210938 497.828125 74.417969 501.46875 77.714844 C 505.105469 81.011719 508.660156 84.394531 512.132812 87.867188 C 515.605469 91.339844 518.988281 94.894531 522.285156 98.53125 C 525.582031 102.171875 528.789062 105.886719 531.902344 109.683594 C 535.019531 113.476562 538.039062 117.347656 540.960938 121.289062 C 543.886719 125.234375 546.714844 129.246094 549.441406 133.328125 C 552.167969 137.410156 554.792969 141.558594 557.320312 145.769531 C 559.84375 149.980469 562.261719 154.25 564.578125 158.582031 C 566.890625 162.910156 569.097656 167.296875 571.195312 171.734375 C 573.296875 176.171875 575.285156 180.660156 577.164062 185.195312 C 579.042969 189.730469 580.808594 194.308594 582.464844 198.933594 C 584.117188 203.554688 585.65625 208.214844 587.082031 212.914062 C 588.507812 217.613281 589.816406 222.34375 591.007812 227.105469 C 592.203125 231.867188 593.277344 236.65625 594.234375 241.472656 C 595.191406 246.289062 596.03125 251.125 596.753906 255.980469 C 597.472656 260.835938 598.074219 265.707031 598.554688 270.59375 C 599.035156 275.480469 599.398438 280.375 599.636719 285.28125 C 599.878906 290.183594 600 295.089844 600 300 Z M 600 300 " fill-opacity="1" fill-rule="nonzero"/><path fill="#ffffff" d="M 467.476562 422.496094 C 467.472656 421.828125 467.4375 421.164062 467.371094 420.5 C 467.304688 419.835938 467.203125 419.175781 467.074219 418.523438 C 466.941406 417.871094 466.777344 417.222656 466.582031 416.585938 C 466.386719 415.949219 466.164062 415.320312 465.90625 414.707031 C 465.648438 414.089844 465.363281 413.488281 465.050781 412.902344 C 464.734375 412.3125 464.390625 411.742188 464.019531 411.1875 C 463.648438 410.632812 463.25 410.097656 462.828125 409.582031 C 462.40625 409.070312 461.957031 408.574219 461.484375 408.105469 C 461.015625 407.632812 460.519531 407.183594 460.003906 406.761719 C 459.492188 406.339844 458.957031 405.941406 458.402344 405.570312 C 457.847656 405.199219 457.277344 404.855469 456.6875 404.539062 C 456.101562 404.226562 455.5 403.941406 454.882812 403.683594 C 454.269531 403.425781 453.640625 403.203125 453.003906 403.007812 C 452.367188 402.8125 451.71875 402.648438 451.066406 402.515625 C 450.414062 402.386719 449.753906 402.285156 449.089844 402.21875 C 448.425781 402.152344 447.761719 402.117188 447.09375 402.113281 L 268.691406 402.113281 C 269.34375 402.789062 269.960938 403.496094 270.546875 404.230469 C 271.132812 404.964844 271.679688 405.726562 272.191406 406.515625 C 272.703125 407.304688 273.175781 408.113281 273.609375 408.949219 C 274.042969 409.78125 274.433594 410.632812 274.785156 411.503906 C 275.136719 412.375 275.445312 413.261719 275.714844 414.164062 C 275.980469 415.0625 276.203125 415.976562 276.382812 416.898438 C 276.5625 417.820312 276.695312 418.75 276.785156 419.683594 C 276.875 420.617188 276.921875 421.554688 276.921875 422.496094 C 276.921875 423.433594 276.875 424.371094 276.785156 425.308594 C 276.695312 426.242188 276.5625 427.171875 276.382812 428.09375 C 276.203125 429.015625 275.980469 429.925781 275.714844 430.828125 C 275.445312 431.726562 275.136719 432.613281 274.785156 433.484375 C 274.433594 434.355469 274.042969 435.207031 273.609375 436.042969 C 273.175781 436.875 272.703125 437.6875 272.191406 438.472656 C 271.679688 439.261719 271.132812 440.023438 270.546875 440.757812 C 269.960938 441.496094 269.34375 442.199219 268.691406 442.875 L 447.09375 442.875 C 447.761719 442.875 448.425781 442.839844 449.089844 442.773438 C 449.753906 442.703125 450.414062 442.605469 451.066406 442.472656 C 451.71875 442.339844 452.367188 442.179688 453.003906 441.984375 C 453.640625 441.789062 454.269531 441.5625 454.882812 441.304688 C 455.5 441.050781 456.101562 440.765625 456.6875 440.449219 C 457.277344 440.132812 457.847656 439.789062 458.402344 439.417969 C 458.957031 439.050781 459.492188 438.652344 460.003906 438.226562 C 460.519531 437.804688 461.015625 437.359375 461.484375 436.886719 C 461.957031 436.414062 462.40625 435.921875 462.828125 435.40625 C 463.25 434.890625 463.648438 434.355469 464.019531 433.800781 C 464.390625 433.246094 464.734375 432.675781 465.050781 432.089844 C 465.363281 431.5 465.648438 430.898438 465.90625 430.285156 C 466.164062 429.667969 466.386719 429.042969 466.582031 428.402344 C 466.777344 427.765625 466.941406 427.121094 467.074219 426.464844 C 467.203125 425.8125 467.304688 425.152344 467.371094 424.492188 C 467.4375 423.828125 467.472656 423.160156 467.476562 422.496094 Z M 221.164062 333.59375 C 221.167969 333.867188 221.144531 334.140625 221.097656 334.414062 C 221.046875 334.683594 220.972656 334.949219 220.867188 335.203125 C 220.765625 335.460938 220.640625 335.703125 220.488281 335.933594 C 220.339844 336.164062 220.167969 336.378906 219.972656 336.574219 C 219.78125 336.769531 219.570312 336.945312 219.339844 337.101562 C 219.113281 337.253906 218.871094 337.386719 218.617188 337.492188 C 218.363281 337.597656 218.101562 337.679688 217.832031 337.734375 C 217.558594 337.789062 217.289062 337.816406 217.011719 337.816406 C 216.734375 337.816406 216.464844 337.789062 216.191406 337.734375 C 215.921875 337.679688 215.660156 337.597656 215.40625 337.492188 C 215.152344 337.386719 214.910156 337.253906 214.683594 337.101562 C 214.453125 336.945312 214.242188 336.769531 214.050781 336.574219 C 213.859375 336.378906 213.6875 336.164062 213.535156 335.933594 C 213.382812 335.703125 213.257812 335.460938 213.15625 335.203125 C 213.054688 334.949219 212.976562 334.683594 212.925781 334.414062 C 212.878906 334.140625 212.855469 333.867188 212.859375 333.59375 L 212.859375 332.722656 C 212.257812 332.507812 211.679688 332.25 211.121094 331.945312 C 210.558594 331.644531 210.023438 331.300781 209.519531 330.914062 C 209.011719 330.53125 208.535156 330.109375 208.09375 329.652344 C 207.652344 329.195312 207.246094 328.703125 206.878906 328.183594 C 206.511719 327.664062 206.1875 327.121094 205.902344 326.550781 C 205.621094 325.980469 205.382812 325.390625 205.191406 324.785156 C 204.996094 324.175781 204.851562 323.558594 204.753906 322.929688 C 204.65625 322.300781 204.609375 321.667969 204.609375 321.03125 C 204.617188 320.484375 204.730469 319.964844 204.945312 319.460938 C 205.160156 318.960938 205.460938 318.519531 205.847656 318.140625 C 206.238281 317.757812 206.683594 317.464844 207.1875 317.257812 C 207.691406 317.050781 208.214844 316.945312 208.761719 316.945312 C 209.304688 316.945312 209.828125 317.050781 210.332031 317.257812 C 210.839844 317.464844 211.285156 317.757812 211.671875 318.140625 C 212.0625 318.519531 212.363281 318.960938 212.578125 319.460938 C 212.792969 319.964844 212.902344 320.484375 212.914062 321.03125 C 212.914062 321.300781 212.941406 321.566406 212.992188 321.832031 C 213.042969 322.09375 213.121094 322.351562 213.226562 322.601562 C 213.328125 322.847656 213.453125 323.085938 213.605469 323.308594 C 213.753906 323.53125 213.925781 323.742188 214.113281 323.929688 C 214.304688 324.121094 214.511719 324.292969 214.734375 324.441406 C 214.960938 324.589844 215.195312 324.714844 215.445312 324.820312 C 215.695312 324.921875 215.949219 325 216.214844 325.054688 C 216.480469 325.105469 216.746094 325.132812 217.015625 325.132812 C 217.285156 325.132812 217.550781 325.105469 217.816406 325.054688 C 218.078125 325 218.335938 324.921875 218.585938 324.820312 C 218.832031 324.714844 219.070312 324.589844 219.292969 324.441406 C 219.515625 324.292969 219.726562 324.121094 219.914062 323.929688 C 220.105469 323.742188 220.277344 323.53125 220.425781 323.308594 C 220.574219 323.085938 220.699219 322.847656 220.804688 322.601562 C 220.90625 322.351562 220.984375 322.09375 221.039062 321.832031 C 221.089844 321.566406 221.117188 321.300781 221.117188 321.03125 C 221.117188 320.761719 221.089844 320.496094 221.039062 320.230469 C 220.984375 319.964844 220.90625 319.710938 220.804688 319.460938 C 220.699219 319.210938 220.574219 318.976562 220.425781 318.75 C 220.277344 318.527344 220.105469 318.320312 219.914062 318.128906 C 219.726562 317.941406 219.515625 317.769531 219.292969 317.621094 C 219.070312 317.46875 218.832031 317.34375 218.585938 317.242188 C 218.335938 317.136719 218.078125 317.058594 217.816406 317.007812 C 217.550781 316.957031 217.285156 316.929688 217.015625 316.929688 C 216.289062 316.929688 215.570312 316.863281 214.855469 316.738281 C 214.140625 316.609375 213.445312 316.421875 212.761719 316.175781 C 212.082031 315.925781 211.425781 315.617188 210.800781 315.253906 C 210.171875 314.890625 209.582031 314.476562 209.027344 314.007812 C 208.472656 313.539062 207.960938 313.027344 207.496094 312.472656 C 207.03125 311.914062 206.621094 311.320312 206.257812 310.691406 C 205.898438 310.0625 205.597656 309.40625 205.351562 308.726562 C 205.105469 308.042969 204.921875 307.34375 204.796875 306.628906 C 204.671875 305.914062 204.613281 305.195312 204.617188 304.46875 C 204.621094 303.742188 204.6875 303.023438 204.816406 302.308594 C 204.945312 301.597656 205.136719 300.898438 205.386719 300.21875 C 205.636719 299.539062 205.945312 298.886719 206.3125 298.261719 C 206.679688 297.632812 207.097656 297.042969 207.566406 296.492188 C 208.035156 295.9375 208.550781 295.429688 209.109375 294.96875 C 209.667969 294.503906 210.261719 294.09375 210.890625 293.738281 C 211.523438 293.378906 212.179688 293.078125 212.863281 292.832031 L 212.863281 291.960938 C 212.871094 291.417969 212.984375 290.894531 213.199219 290.394531 C 213.414062 289.890625 213.714844 289.453125 214.101562 289.070312 C 214.492188 288.6875 214.9375 288.394531 215.441406 288.1875 C 215.945312 287.980469 216.472656 287.878906 217.015625 287.878906 C 217.558594 287.878906 218.085938 287.980469 218.589844 288.1875 C 219.09375 288.394531 219.539062 288.6875 219.925781 289.070312 C 220.316406 289.453125 220.617188 289.894531 220.832031 290.394531 C 221.046875 290.894531 221.160156 291.417969 221.167969 291.960938 L 221.167969 292.832031 C 221.769531 293.046875 222.347656 293.304688 222.90625 293.609375 C 223.46875 293.910156 224.003906 294.253906 224.507812 294.640625 C 225.015625 295.023438 225.492188 295.445312 225.933594 295.902344 C 226.375 296.359375 226.78125 296.851562 227.148438 297.371094 C 227.515625 297.890625 227.839844 298.4375 228.125 299.007812 C 228.40625 299.574219 228.644531 300.164062 228.835938 300.773438 C 229.03125 301.378906 229.175781 301.996094 229.273438 302.625 C 229.371094 303.253906 229.417969 303.886719 229.417969 304.523438 C 229.421875 304.800781 229.402344 305.074219 229.351562 305.34375 C 229.300781 305.617188 229.226562 305.878906 229.125 306.136719 C 229.019531 306.390625 228.894531 306.632812 228.742188 306.863281 C 228.59375 307.097656 228.421875 307.308594 228.226562 307.507812 C 228.035156 307.703125 227.824219 307.878906 227.59375 308.03125 C 227.367188 308.1875 227.125 308.316406 226.871094 308.425781 C 226.617188 308.53125 226.355469 308.609375 226.085938 308.664062 C 225.816406 308.71875 225.542969 308.746094 225.265625 308.746094 C 224.992188 308.746094 224.71875 308.71875 224.449219 308.664062 C 224.175781 308.609375 223.914062 308.53125 223.660156 308.425781 C 223.40625 308.316406 223.164062 308.1875 222.9375 308.03125 C 222.710938 307.878906 222.5 307.703125 222.304688 307.507812 C 222.113281 307.308594 221.941406 307.097656 221.789062 306.863281 C 221.640625 306.632812 221.511719 306.390625 221.410156 306.136719 C 221.308594 305.878906 221.230469 305.617188 221.183594 305.34375 C 221.132812 305.074219 221.109375 304.800781 221.113281 304.523438 C 221.113281 304.253906 221.085938 303.988281 221.035156 303.722656 C 220.984375 303.460938 220.90625 303.203125 220.800781 302.953125 C 220.699219 302.707031 220.574219 302.46875 220.421875 302.246094 C 220.273438 302.023438 220.101562 301.816406 219.914062 301.625 C 219.722656 301.433594 219.515625 301.265625 219.292969 301.113281 C 219.066406 300.964844 218.832031 300.839844 218.582031 300.734375 C 218.332031 300.632812 218.078125 300.554688 217.8125 300.5 C 217.546875 300.449219 217.28125 300.421875 217.011719 300.421875 C 216.742188 300.421875 216.476562 300.449219 216.210938 300.5 C 215.949219 300.554688 215.691406 300.632812 215.441406 300.734375 C 215.195312 300.839844 214.957031 300.964844 214.734375 301.113281 C 214.511719 301.265625 214.300781 301.433594 214.113281 301.625 C 213.921875 301.816406 213.75 302.023438 213.601562 302.246094 C 213.453125 302.46875 213.328125 302.707031 213.222656 302.953125 C 213.121094 303.203125 213.042969 303.460938 212.988281 303.722656 C 212.9375 303.988281 212.910156 304.253906 212.910156 304.523438 C 212.910156 304.792969 212.9375 305.0625 212.988281 305.324219 C 213.042969 305.589844 213.121094 305.84375 213.222656 306.09375 C 213.328125 306.34375 213.453125 306.578125 213.601562 306.804688 C 213.75 307.027344 213.921875 307.234375 214.113281 307.425781 C 214.300781 307.617188 214.511719 307.785156 214.734375 307.933594 C 214.957031 308.085938 215.195312 308.210938 215.441406 308.3125 C 215.691406 308.417969 215.949219 308.496094 216.210938 308.546875 C 216.476562 308.601562 216.742188 308.625 217.011719 308.625 C 217.738281 308.625 218.457031 308.691406 219.171875 308.816406 C 219.886719 308.945312 220.582031 309.132812 221.265625 309.378906 C 221.945312 309.628906 222.601562 309.9375 223.226562 310.300781 C 223.855469 310.664062 224.445312 311.078125 225 311.546875 C 225.554688 312.015625 226.066406 312.527344 226.53125 313.082031 C 226.996094 313.640625 227.40625 314.234375 227.769531 314.863281 C 228.128906 315.492188 228.433594 316.148438 228.679688 316.828125 C 228.925781 317.511719 229.109375 318.210938 229.230469 318.925781 C 229.355469 319.640625 229.414062 320.359375 229.410156 321.085938 C 229.410156 321.8125 229.34375 322.53125 229.214844 323.242188 C 229.082031 323.957031 228.894531 324.65625 228.640625 325.335938 C 228.390625 326.015625 228.082031 326.667969 227.714844 327.292969 C 227.347656 327.921875 226.933594 328.511719 226.460938 329.0625 C 225.992188 329.617188 225.480469 330.125 224.921875 330.585938 C 224.363281 331.050781 223.765625 331.460938 223.136719 331.820312 C 222.507812 332.175781 221.847656 332.476562 221.164062 332.722656 Z M 217.011719 271.921875 C 213.730469 271.914062 210.496094 272.300781 207.3125 273.078125 C 204.125 273.855469 201.074219 275.003906 198.167969 276.519531 L 167.226562 276.519531 C 166.953125 276.519531 166.683594 276.542969 166.417969 276.597656 C 166.148438 276.652344 165.890625 276.730469 165.636719 276.835938 C 165.386719 276.9375 165.144531 277.066406 164.917969 277.21875 C 164.691406 277.367188 164.484375 277.542969 164.289062 277.734375 C 164.097656 277.925781 163.925781 278.136719 163.773438 278.363281 C 163.621094 278.589844 163.496094 278.828125 163.390625 279.082031 C 163.285156 279.332031 163.207031 279.59375 163.152344 279.859375 C 163.101562 280.128906 163.074219 280.398438 163.074219 280.667969 C 163.070312 281.25 163.015625 281.824219 162.898438 282.394531 C 162.785156 282.964844 162.617188 283.519531 162.394531 284.054688 C 162.171875 284.589844 161.898438 285.101562 161.574219 285.582031 C 161.25 286.066406 160.882812 286.511719 160.472656 286.921875 C 160.0625 287.335938 159.617188 287.699219 159.132812 288.023438 C 158.648438 288.347656 158.140625 288.621094 157.605469 288.84375 C 157.066406 289.066406 156.515625 289.234375 155.945312 289.347656 C 155.375 289.464844 154.800781 289.523438 154.21875 289.523438 C 153.949219 289.523438 153.675781 289.550781 153.410156 289.601562 C 153.140625 289.65625 152.882812 289.734375 152.632812 289.839844 C 152.378906 289.945312 152.140625 290.074219 151.914062 290.222656 C 151.6875 290.375 151.476562 290.546875 151.285156 290.742188 C 151.089844 290.933594 150.917969 291.144531 150.769531 291.371094 C 150.617188 291.597656 150.488281 291.835938 150.382812 292.085938 C 150.28125 292.339844 150.199219 292.597656 150.148438 292.867188 C 150.09375 293.132812 150.066406 293.402344 150.066406 293.675781 L 150.066406 331.878906 C 150.066406 332.152344 150.09375 332.421875 150.148438 332.691406 C 150.199219 332.957031 150.28125 333.214844 150.382812 333.46875 C 150.488281 333.71875 150.617188 333.960938 150.769531 334.1875 C 150.917969 334.414062 151.089844 334.625 151.285156 334.816406 C 151.476562 335.007812 151.6875 335.179688 151.914062 335.332031 C 152.140625 335.484375 152.378906 335.613281 152.632812 335.714844 C 152.882812 335.820312 153.140625 335.898438 153.410156 335.953125 C 153.675781 336.007812 153.945312 336.03125 154.21875 336.03125 C 154.800781 336.035156 155.375 336.09375 155.945312 336.207031 C 156.515625 336.320312 157.066406 336.488281 157.605469 336.714844 C 158.140625 336.9375 158.648438 337.210938 159.132812 337.53125 C 159.617188 337.855469 160.0625 338.222656 160.472656 338.632812 C 160.882812 339.042969 161.25 339.492188 161.574219 339.972656 C 161.898438 340.457031 162.171875 340.964844 162.394531 341.5 C 162.617188 342.039062 162.785156 342.589844 162.898438 343.160156 C 163.015625 343.730469 163.070312 344.304688 163.074219 344.886719 C 163.074219 345.160156 163.101562 345.429688 163.152344 345.695312 C 163.207031 345.964844 163.285156 346.222656 163.390625 346.476562 C 163.496094 346.726562 163.621094 346.964844 163.773438 347.191406 C 163.925781 347.417969 164.097656 347.628906 164.289062 347.820312 C 164.484375 348.015625 164.691406 348.1875 164.917969 348.339844 C 165.144531 348.488281 165.386719 348.617188 165.636719 348.722656 C 165.890625 348.828125 166.148438 348.90625 166.417969 348.957031 C 166.683594 349.011719 166.953125 349.039062 167.226562 349.039062 L 198.164062 349.039062 C 199.613281 349.789062 201.105469 350.453125 202.632812 351.027344 C 204.164062 351.601562 205.722656 352.082031 207.308594 352.46875 C 208.898438 352.855469 210.503906 353.148438 212.125 353.34375 C 213.746094 353.539062 215.375 353.636719 217.007812 353.636719 C 218.644531 353.636719 220.269531 353.539062 221.894531 353.34375 C 223.515625 353.148438 225.121094 352.855469 226.707031 352.46875 C 228.296875 352.082031 229.855469 351.601562 231.382812 351.027344 C 232.914062 350.453125 234.402344 349.789062 235.855469 349.039062 L 266.792969 349.039062 C 267.0625 349.039062 267.335938 349.011719 267.601562 348.957031 C 267.867188 348.90625 268.128906 348.828125 268.378906 348.722656 C 268.632812 348.617188 268.871094 348.488281 269.097656 348.339844 C 269.324219 348.1875 269.535156 348.015625 269.726562 347.820312 C 269.921875 347.628906 270.09375 347.417969 270.246094 347.191406 C 270.394531 346.964844 270.523438 346.726562 270.628906 346.476562 C 270.734375 346.222656 270.8125 345.964844 270.863281 345.695312 C 270.917969 345.429688 270.945312 345.160156 270.945312 344.886719 C 270.945312 344.304688 271.003906 343.730469 271.117188 343.160156 C 271.234375 342.589844 271.402344 342.039062 271.625 341.5 C 271.847656 340.964844 272.121094 340.457031 272.445312 339.972656 C 272.765625 339.492188 273.132812 339.042969 273.542969 338.632812 C 273.957031 338.222656 274.402344 337.855469 274.886719 337.53125 C 275.367188 337.210938 275.878906 336.9375 276.414062 336.714844 C 276.949219 336.488281 277.503906 336.320312 278.074219 336.207031 C 278.640625 336.09375 279.21875 336.035156 279.796875 336.03125 C 280.070312 336.03125 280.339844 336.007812 280.609375 335.953125 C 280.875 335.898438 281.136719 335.820312 281.386719 335.714844 C 281.640625 335.613281 281.878906 335.484375 282.105469 335.332031 C 282.332031 335.179688 282.542969 335.007812 282.734375 334.816406 C 282.925781 334.625 283.101562 334.414062 283.25 334.1875 C 283.402344 333.960938 283.53125 333.722656 283.636719 333.46875 C 283.738281 333.21875 283.816406 332.957031 283.871094 332.691406 C 283.925781 332.421875 283.949219 332.152344 283.949219 331.878906 L 283.949219 293.671875 C 283.949219 293.398438 283.925781 293.128906 283.871094 292.863281 C 283.816406 292.59375 283.738281 292.335938 283.636719 292.082031 C 283.53125 291.832031 283.402344 291.589844 283.25 291.363281 C 283.101562 291.136719 282.925781 290.929688 282.734375 290.734375 C 282.542969 290.542969 282.332031 290.371094 282.105469 290.21875 C 281.878906 290.066406 281.640625 289.9375 281.386719 289.835938 C 281.136719 289.730469 280.875 289.652344 280.609375 289.597656 C 280.339844 289.546875 280.070312 289.519531 279.796875 289.519531 C 279.21875 289.515625 278.640625 289.460938 278.074219 289.34375 C 277.503906 289.230469 276.949219 289.0625 276.414062 288.839844 C 275.878906 288.617188 275.367188 288.34375 274.886719 288.019531 C 274.402344 287.695312 273.957031 287.328125 273.542969 286.917969 C 273.132812 286.507812 272.765625 286.0625 272.445312 285.578125 C 272.121094 285.09375 271.847656 284.585938 271.625 284.050781 C 271.402344 283.511719 271.234375 282.960938 271.117188 282.390625 C 271.003906 281.820312 270.945312 281.246094 270.945312 280.664062 C 270.945312 280.394531 270.917969 280.121094 270.863281 279.855469 C 270.8125 279.585938 270.730469 279.328125 270.628906 279.078125 C 270.523438 278.824219 270.394531 278.585938 270.246094 278.359375 C 270.09375 278.132812 269.921875 277.921875 269.726562 277.730469 C 269.535156 277.535156 269.324219 277.363281 269.097656 277.214844 C 268.871094 277.0625 268.632812 276.933594 268.378906 276.828125 C 268.128906 276.726562 267.867188 276.644531 267.601562 276.59375 C 267.335938 276.539062 267.0625 276.511719 266.792969 276.511719 L 235.855469 276.511719 C 232.945312 275 229.894531 273.851562 226.710938 273.074219 C 223.523438 272.296875 220.289062 271.910156 217.007812 271.917969 Z M 246.808594 284.820312 L 263.152344 284.820312 C 263.535156 286.332031 264.109375 287.761719 264.875 289.117188 C 265.644531 290.46875 266.578125 291.695312 267.675781 292.796875 C 268.777344 293.894531 270.003906 294.832031 271.359375 295.597656 C 272.710938 296.367188 274.140625 296.941406 275.652344 297.320312 L 275.652344 328.242188 C 274.292969 328.582031 273 329.082031 271.765625 329.738281 C 270.53125 330.394531 269.390625 331.191406 268.351562 332.125 C 267.308594 333.058594 266.394531 334.105469 265.609375 335.261719 C 264.820312 336.417969 264.183594 337.648438 263.699219 338.960938 L 248.382812 338.960938 C 249.171875 338.015625 249.917969 337.03125 250.621094 336.015625 C 251.324219 335.003906 251.976562 333.957031 252.585938 332.882812 C 253.191406 331.808594 253.75 330.707031 254.257812 329.582031 C 254.765625 328.457031 255.222656 327.3125 255.625 326.144531 C 256.027344 324.980469 256.378906 323.796875 256.675781 322.597656 C 256.972656 321.402344 257.214844 320.191406 257.402344 318.972656 C 257.589844 317.753906 257.71875 316.527344 257.796875 315.292969 C 257.871094 314.0625 257.890625 312.828125 257.855469 311.59375 C 257.820312 310.363281 257.730469 309.132812 257.582031 307.90625 C 257.433594 306.679688 257.230469 305.464844 256.972656 304.257812 C 256.714844 303.050781 256.40625 301.859375 256.039062 300.679688 C 255.671875 299.5 255.253906 298.339844 254.785156 297.199219 C 254.3125 296.058594 253.792969 294.941406 253.21875 293.847656 C 252.648438 292.753906 252.027344 291.6875 251.359375 290.652344 C 250.6875 289.613281 249.972656 288.609375 249.214844 287.636719 C 248.453125 286.664062 247.652344 285.726562 246.808594 284.828125 Z M 185.636719 338.957031 L 170.320312 338.957031 C 169.832031 337.644531 169.199219 336.414062 168.410156 335.257812 C 167.625 334.101562 166.710938 333.054688 165.671875 332.121094 C 164.628906 331.1875 163.492188 330.394531 162.257812 329.734375 C 161.023438 329.078125 159.730469 328.578125 158.371094 328.238281 L 158.371094 297.320312 C 159.882812 296.941406 161.3125 296.367188 162.664062 295.597656 C 164.019531 294.828125 165.246094 293.894531 166.347656 292.796875 C 167.445312 291.695312 168.378906 290.46875 169.148438 289.113281 C 169.914062 287.761719 170.488281 286.332031 170.871094 284.820312 L 187.214844 284.820312 C 186.371094 285.722656 185.570312 286.65625 184.808594 287.628906 C 184.050781 288.601562 183.335938 289.609375 182.667969 290.644531 C 181.996094 291.683594 181.375 292.75 180.804688 293.84375 C 180.230469 294.9375 179.710938 296.054688 179.238281 297.195312 C 178.769531 298.335938 178.351562 299.496094 177.984375 300.675781 C 177.617188 301.851562 177.308594 303.046875 177.050781 304.253906 C 176.792969 305.460938 176.589844 306.675781 176.441406 307.902344 C 176.292969 309.128906 176.203125 310.355469 176.167969 311.589844 C 176.132812 312.824219 176.152344 314.058594 176.226562 315.289062 C 176.304688 316.519531 176.433594 317.746094 176.621094 318.96875 C 176.808594 320.1875 177.050781 321.398438 177.347656 322.59375 C 177.644531 323.792969 177.992188 324.976562 178.398438 326.140625 C 178.800781 327.308594 179.257812 328.453125 179.765625 329.578125 C 180.273438 330.703125 180.828125 331.804688 181.4375 332.878906 C 182.042969 333.953125 182.699219 334.996094 183.402344 336.011719 C 184.105469 337.027344 184.851562 338.007812 185.640625 338.957031 Z M 240.023438 289.757812 C 239.269531 289.003906 238.480469 288.289062 237.65625 287.613281 C 236.832031 286.9375 235.976562 286.304688 235.089844 285.710938 C 234.203125 285.117188 233.292969 284.570312 232.351562 284.066406 C 231.410156 283.566406 230.449219 283.109375 229.464844 282.703125 C 228.476562 282.292969 227.476562 281.933594 226.457031 281.625 C 225.433594 281.316406 224.402344 281.058594 223.355469 280.847656 C 222.308594 280.640625 221.257812 280.484375 220.195312 280.378906 C 219.136719 280.277344 218.070312 280.222656 217.003906 280.222656 C 215.9375 280.222656 214.875 280.277344 213.8125 280.378906 C 212.753906 280.484375 211.699219 280.640625 210.652344 280.847656 C 209.609375 281.058594 208.574219 281.316406 207.554688 281.625 C 206.535156 281.933594 205.53125 282.292969 204.546875 282.703125 C 203.5625 283.109375 202.597656 283.566406 201.660156 284.066406 C 200.71875 284.570312 199.804688 285.117188 198.917969 285.710938 C 198.03125 286.304688 197.175781 286.9375 196.351562 287.613281 C 195.527344 288.289062 194.738281 289.003906 193.984375 289.757812 C 193.230469 290.511719 192.515625 291.300781 191.839844 292.125 C 191.164062 292.949219 190.527344 293.804688 189.9375 294.691406 C 189.34375 295.578125 188.796875 296.492188 188.292969 297.433594 C 187.792969 298.371094 187.335938 299.335938 186.929688 300.320312 C 186.519531 301.304688 186.160156 302.308594 185.851562 303.328125 C 185.542969 304.347656 185.285156 305.382812 185.074219 306.425781 C 184.867188 307.472656 184.710938 308.527344 184.605469 309.585938 C 184.503906 310.648438 184.449219 311.710938 184.449219 312.777344 C 184.449219 313.84375 184.503906 314.910156 184.605469 315.96875 C 184.710938 317.03125 184.867188 318.085938 185.074219 319.128906 C 185.285156 320.175781 185.542969 321.207031 185.851562 322.230469 C 186.160156 323.25 186.519531 324.25 186.929688 325.238281 C 187.335938 326.222656 187.792969 327.183594 188.292969 328.125 C 188.796875 329.066406 189.34375 329.980469 189.9375 330.863281 C 190.527344 331.75 191.164062 332.605469 191.839844 333.429688 C 192.515625 334.253906 193.230469 335.042969 193.984375 335.796875 C 194.738281 336.550781 195.527344 337.265625 196.351562 337.945312 C 197.175781 338.621094 198.03125 339.253906 198.917969 339.847656 C 199.804688 340.4375 200.71875 340.988281 201.660156 341.488281 C 202.597656 341.992188 203.5625 342.445312 204.546875 342.855469 C 205.53125 343.261719 206.535156 343.621094 207.554688 343.929688 C 208.574219 344.242188 209.609375 344.5 210.652344 344.707031 C 211.699219 344.914062 212.753906 345.070312 213.8125 345.175781 C 214.875 345.28125 215.9375 345.332031 217.003906 345.332031 C 218.070312 345.332031 219.136719 345.28125 220.195312 345.175781 C 221.257812 345.070312 222.308594 344.914062 223.355469 344.707031 C 224.402344 344.5 225.433594 344.242188 226.457031 343.929688 C 227.476562 343.621094 228.476562 343.261719 229.464844 342.855469 C 230.449219 342.449219 231.410156 341.992188 232.351562 341.488281 C 233.292969 340.988281 234.203125 340.4375 235.089844 339.847656 C 235.976562 339.253906 236.832031 338.621094 237.65625 337.945312 C 238.480469 337.265625 239.269531 336.550781 240.023438 335.796875 C 240.777344 335.042969 241.492188 334.253906 242.171875 333.429688 C 242.847656 332.605469 243.480469 331.75 244.074219 330.863281 C 244.664062 329.980469 245.214844 329.066406 245.714844 328.125 C 246.21875 327.183594 246.671875 326.222656 247.082031 325.238281 C 247.488281 324.25 247.847656 323.25 248.15625 322.230469 C 248.46875 321.207031 248.726562 320.175781 248.933594 319.128906 C 249.140625 318.085938 249.296875 317.03125 249.402344 315.96875 C 249.507812 314.910156 249.558594 313.84375 249.558594 312.777344 C 249.558594 311.710938 249.507812 310.648438 249.402344 309.585938 C 249.296875 308.527344 249.140625 307.472656 248.933594 306.425781 C 248.726562 305.382812 248.46875 304.347656 248.15625 303.328125 C 247.847656 302.308594 247.488281 301.304688 247.082031 300.320312 C 246.671875 299.335938 246.21875 298.371094 245.714844 297.433594 C 245.214844 296.492188 244.664062 295.578125 244.074219 294.691406 C 243.480469 293.804688 242.847656 292.949219 242.171875 292.125 C 241.492188 291.300781 240.777344 290.511719 240.023438 289.757812 Z M 128.363281 254.660156 L 147.113281 254.660156 L 147.113281 235.179688 C 147.113281 234.90625 147.140625 234.636719 147.195312 234.371094 C 147.25 234.101562 147.328125 233.84375 147.429688 233.589844 C 147.535156 233.339844 147.664062 233.101562 147.816406 232.875 C 147.964844 232.648438 148.140625 232.4375 148.332031 232.242188 C 148.523438 232.050781 148.734375 231.878906 148.960938 231.726562 C 149.1875 231.578125 149.425781 231.449219 149.679688 231.34375 C 149.929688 231.238281 150.191406 231.160156 150.457031 231.109375 C 150.726562 231.054688 150.996094 231.027344 151.269531 231.027344 L 217.890625 231.027344 L 217.890625 152.972656 C 217.890625 152.699219 217.917969 152.429688 217.972656 152.160156 C 218.023438 151.894531 218.101562 151.632812 218.207031 151.382812 C 218.3125 151.128906 218.441406 150.890625 218.589844 150.664062 C 218.742188 150.4375 218.914062 150.226562 219.109375 150.035156 C 219.300781 149.84375 219.511719 149.671875 219.738281 149.519531 C 219.964844 149.367188 220.203125 149.238281 220.453125 149.136719 C 220.707031 149.03125 220.964844 148.953125 221.234375 148.898438 C 221.5 148.84375 221.769531 148.820312 222.042969 148.820312 L 447.640625 148.820312 C 447.914062 148.820312 448.183594 148.84375 448.449219 148.898438 C 448.71875 148.953125 448.976562 149.03125 449.230469 149.136719 C 449.480469 149.238281 449.71875 149.367188 449.945312 149.519531 C 450.171875 149.667969 450.382812 149.84375 450.574219 150.035156 C 450.769531 150.226562 450.941406 150.4375 451.09375 150.664062 C 451.242188 150.890625 451.371094 151.128906 451.476562 151.382812 C 451.582031 151.632812 451.660156 151.894531 451.714844 152.160156 C 451.765625 152.429688 451.792969 152.699219 451.792969 152.972656 L 451.792969 394.195312 C 452.671875 394.339844 453.539062 394.527344 454.402344 394.753906 C 455.261719 394.980469 456.113281 395.246094 456.949219 395.550781 C 457.785156 395.859375 458.605469 396.203125 459.410156 396.582031 C 460.210938 396.964844 460.996094 397.382812 461.761719 397.839844 C 462.527344 398.292969 463.269531 398.785156 463.988281 399.308594 C 464.710938 399.832031 465.402344 400.390625 466.070312 400.976562 C 466.738281 401.566406 467.378906 402.1875 467.988281 402.835938 C 468.597656 403.480469 469.175781 404.15625 469.722656 404.859375 C 470.269531 405.5625 470.785156 406.289062 471.265625 407.039062 C 471.746094 407.789062 472.1875 408.558594 472.597656 409.351562 C 473.003906 410.140625 473.375 410.949219 473.707031 411.777344 C 474.039062 412.601562 474.332031 413.441406 474.585938 414.292969 C 474.84375 415.148438 475.054688 416.011719 475.230469 416.882812 C 475.40625 417.757812 475.539062 418.636719 475.628906 419.523438 C 475.722656 420.40625 475.773438 421.296875 475.78125 422.1875 C 475.792969 423.074219 475.761719 423.964844 475.6875 424.851562 C 475.613281 425.738281 475.5 426.621094 475.34375 427.496094 C 475.191406 428.375 474.996094 429.242188 474.757812 430.101562 C 474.523438 430.960938 474.246094 431.804688 473.933594 432.636719 C 473.617188 433.46875 473.265625 434.285156 472.875 435.085938 C 472.484375 435.886719 472.054688 436.667969 471.59375 437.425781 C 471.128906 438.1875 470.632812 438.925781 470.097656 439.636719 C 469.566406 440.351562 469.003906 441.039062 468.40625 441.699219 C 467.8125 442.363281 467.183594 442.996094 466.53125 443.597656 C 465.875 444.199219 465.195312 444.773438 464.484375 445.3125 C 463.777344 445.851562 463.046875 446.355469 462.289062 446.828125 C 461.535156 447.300781 460.761719 447.734375 459.964844 448.132812 C 459.167969 448.535156 458.355469 448.894531 457.527344 449.21875 C 456.695312 449.542969 455.855469 449.828125 455 450.070312 C 454.144531 450.316406 453.277344 450.523438 452.402344 450.6875 C 451.527344 450.851562 450.648438 450.976562 449.761719 451.058594 C 448.875 451.140625 447.984375 451.179688 447.09375 451.179688 L 253.441406 451.179688 L 253.441406 451.171875 L 250.984375 451.171875 L 250.984375 451.1875 C 249.902344 451.183594 248.824219 451.128906 247.746094 451.019531 C 246.667969 450.910156 245.597656 450.75 244.535156 450.535156 C 243.472656 450.324219 242.425781 450.058594 241.390625 449.742188 C 240.355469 449.425781 239.335938 449.0625 238.335938 448.644531 C 237.335938 448.230469 236.359375 447.765625 235.402344 447.253906 C 234.449219 446.742188 233.519531 446.1875 232.621094 445.582031 C 231.722656 444.980469 230.851562 444.335938 230.015625 443.648438 C 229.179688 442.960938 228.378906 442.234375 227.609375 441.46875 C 226.84375 440.703125 226.117188 439.902344 225.429688 439.066406 C 224.742188 438.226562 224.097656 437.359375 223.496094 436.460938 C 222.894531 435.558594 222.335938 434.632812 221.824219 433.675781 C 221.316406 432.722656 220.851562 431.746094 220.433594 430.746094 C 220.019531 429.746094 219.652344 428.726562 219.335938 427.691406 C 219.019531 426.65625 218.757812 425.605469 218.542969 424.542969 C 218.328125 423.484375 218.167969 422.414062 218.058594 421.335938 C 217.953125 420.257812 217.894531 419.175781 217.890625 418.09375 L 217.890625 370.898438 L 128.371094 370.898438 C 128.097656 370.898438 127.828125 370.871094 127.558594 370.820312 C 127.292969 370.765625 127.03125 370.6875 126.78125 370.582031 C 126.527344 370.476562 126.289062 370.347656 126.0625 370.199219 C 125.835938 370.046875 125.625 369.875 125.433594 369.679688 C 125.242188 369.488281 125.070312 369.277344 124.917969 369.050781 C 124.765625 368.824219 124.636719 368.585938 124.535156 368.332031 C 124.429688 368.082031 124.351562 367.820312 124.296875 367.554688 C 124.246094 367.285156 124.21875 367.015625 124.21875 366.742188 L 124.21875 258.8125 C 124.21875 258.539062 124.246094 258.269531 124.296875 258.003906 C 124.351562 257.734375 124.429688 257.476562 124.535156 257.222656 C 124.640625 256.972656 124.765625 256.734375 124.917969 256.507812 C 125.070312 256.28125 125.242188 256.070312 125.433594 255.878906 C 125.628906 255.683594 125.835938 255.511719 126.0625 255.359375 C 126.289062 255.210938 126.53125 255.082031 126.78125 254.976562 C 127.035156 254.871094 127.292969 254.792969 127.5625 254.738281 C 127.828125 254.6875 128.097656 254.660156 128.371094 254.660156 Z M 155.414062 254.660156 L 305.648438 254.660156 C 305.921875 254.660156 306.191406 254.6875 306.460938 254.742188 C 306.726562 254.792969 306.988281 254.875 307.238281 254.976562 C 307.492188 255.082031 307.730469 255.210938 307.957031 255.363281 C 308.183594 255.511719 308.394531 255.683594 308.585938 255.878906 C 308.777344 256.070312 308.949219 256.28125 309.101562 256.507812 C 309.253906 256.734375 309.382812 256.972656 309.484375 257.226562 C 309.589844 257.476562 309.667969 257.738281 309.722656 258.003906 C 309.773438 258.273438 309.800781 258.542969 309.800781 258.816406 L 309.800781 338.957031 L 324.394531 338.957031 L 324.394531 239.332031 L 155.421875 239.332031 L 155.421875 254.660156 Z M 309.796875 347.261719 L 328.546875 347.261719 C 328.820312 347.261719 329.089844 347.234375 329.359375 347.183594 C 329.625 347.128906 329.886719 347.050781 330.136719 346.945312 C 330.390625 346.839844 330.628906 346.710938 330.855469 346.5625 C 331.082031 346.410156 331.292969 346.238281 331.484375 346.042969 C 331.675781 345.851562 331.847656 345.640625 332 345.414062 C 332.152344 345.1875 332.28125 344.949219 332.382812 344.699219 C 332.488281 344.445312 332.566406 344.1875 332.621094 343.917969 C 332.671875 343.652344 332.699219 343.382812 332.699219 343.109375 L 332.699219 323.054688 L 416.605469 323.054688 C 416.882812 323.058594 417.15625 323.035156 417.425781 322.984375 C 417.699219 322.9375 417.960938 322.859375 418.21875 322.757812 C 418.472656 322.65625 418.714844 322.527344 418.945312 322.378906 C 419.179688 322.226562 419.390625 322.054688 419.589844 321.863281 C 419.785156 321.667969 419.960938 321.457031 420.113281 321.230469 C 420.269531 321 420.398438 320.761719 420.507812 320.507812 C 420.613281 320.25 420.691406 319.988281 420.746094 319.71875 C 420.800781 319.449219 420.828125 319.175781 420.828125 318.902344 C 420.828125 318.625 420.800781 318.351562 420.746094 318.082031 C 420.691406 317.8125 420.613281 317.550781 420.507812 317.296875 C 420.398438 317.039062 420.269531 316.800781 420.113281 316.570312 C 419.960938 316.34375 419.785156 316.132812 419.589844 315.9375 C 419.390625 315.746094 419.179688 315.574219 418.945312 315.421875 C 418.714844 315.273438 418.472656 315.144531 418.21875 315.042969 C 417.960938 314.941406 417.699219 314.867188 417.425781 314.816406 C 417.15625 314.765625 416.882812 314.742188 416.605469 314.746094 L 332.699219 314.746094 L 332.699219 286.210938 L 416.605469 286.210938 C 416.878906 286.210938 417.148438 286.183594 417.417969 286.128906 C 417.683594 286.078125 417.941406 285.996094 418.195312 285.894531 C 418.445312 285.789062 418.6875 285.660156 418.914062 285.507812 C 419.140625 285.359375 419.347656 285.1875 419.542969 284.992188 C 419.734375 284.800781 419.90625 284.589844 420.058594 284.363281 C 420.210938 284.136719 420.335938 283.898438 420.441406 283.644531 C 420.546875 283.394531 420.625 283.136719 420.679688 282.867188 C 420.730469 282.601562 420.757812 282.328125 420.757812 282.058594 C 420.757812 281.785156 420.730469 281.515625 420.679688 281.246094 C 420.625 280.980469 420.546875 280.71875 420.441406 280.46875 C 420.335938 280.214844 420.210938 279.976562 420.058594 279.75 C 419.90625 279.523438 419.734375 279.3125 419.542969 279.121094 C 419.347656 278.929688 419.140625 278.757812 418.914062 278.605469 C 418.6875 278.453125 418.445312 278.324219 418.195312 278.222656 C 417.941406 278.117188 417.683594 278.039062 417.417969 277.984375 C 417.148438 277.933594 416.878906 277.90625 416.605469 277.90625 L 332.699219 277.90625 L 332.699219 249.367188 L 416.605469 249.367188 C 416.878906 249.367188 417.148438 249.339844 417.417969 249.285156 C 417.683594 249.234375 417.941406 249.152344 418.195312 249.050781 C 418.445312 248.945312 418.6875 248.816406 418.914062 248.664062 C 419.140625 248.515625 419.347656 248.34375 419.542969 248.148438 C 419.734375 247.957031 419.90625 247.746094 420.058594 247.519531 C 420.210938 247.292969 420.335938 247.054688 420.441406 246.800781 C 420.546875 246.550781 420.625 246.292969 420.679688 246.023438 C 420.730469 245.757812 420.757812 245.484375 420.757812 245.214844 C 420.757812 244.941406 420.730469 244.671875 420.679688 244.402344 C 420.625 244.136719 420.546875 243.875 420.441406 243.625 C 420.335938 243.371094 420.210938 243.132812 420.058594 242.90625 C 419.90625 242.679688 419.734375 242.46875 419.542969 242.277344 C 419.347656 242.085938 419.140625 241.914062 418.914062 241.761719 C 418.6875 241.609375 418.445312 241.480469 418.195312 241.378906 C 417.941406 241.273438 417.683594 241.195312 417.417969 241.140625 C 417.148438 241.089844 416.878906 241.0625 416.605469 241.0625 L 332.699219 241.0625 L 332.699219 235.179688 C 332.699219 234.90625 332.671875 234.636719 332.621094 234.371094 C 332.566406 234.101562 332.488281 233.84375 332.382812 233.589844 C 332.28125 233.339844 332.152344 233.101562 332 232.875 C 331.847656 232.648438 331.675781 232.4375 331.484375 232.246094 C 331.292969 232.050781 331.082031 231.878906 330.855469 231.726562 C 330.628906 231.578125 330.390625 231.449219 330.136719 231.34375 C 329.886719 231.238281 329.625 231.160156 329.359375 231.109375 C 329.089844 231.054688 328.820312 231.027344 328.546875 231.027344 L 226.199219 231.027344 L 226.199219 157.121094 L 443.488281 157.121094 L 443.488281 393.808594 L 253.441406 393.808594 C 252.917969 393.8125 252.414062 393.910156 251.929688 394.101562 C 251.445312 394.292969 251.011719 394.570312 250.628906 394.925781 C 250.246094 395.28125 249.945312 395.695312 249.71875 396.164062 C 249.492188 396.632812 249.359375 397.128906 249.320312 397.652344 C 249.28125 398.171875 249.335938 398.679688 249.492188 399.179688 C 249.644531 399.679688 249.882812 400.132812 250.207031 400.542969 C 250.53125 400.953125 250.917969 401.289062 251.367188 401.550781 C 251.820312 401.8125 252.300781 401.984375 252.816406 402.066406 C 253.9375 402.359375 255.027344 402.738281 256.085938 403.210938 C 257.144531 403.679688 258.15625 404.234375 259.125 404.871094 C 260.089844 405.507812 261 406.21875 261.847656 407.007812 C 262.699219 407.792969 263.476562 408.644531 264.1875 409.558594 C 264.898438 410.472656 265.527344 411.441406 266.078125 412.460938 C 266.628906 413.476562 267.09375 414.535156 267.46875 415.628906 C 267.84375 416.726562 268.128906 417.84375 268.324219 418.984375 C 268.515625 420.125 268.613281 421.277344 268.617188 422.433594 C 268.621094 423.59375 268.527344 424.742188 268.34375 425.886719 C 268.15625 427.027344 267.878906 428.148438 267.507812 429.246094 C 267.136719 430.34375 266.679688 431.402344 266.136719 432.425781 C 265.589844 433.445312 264.964844 434.417969 264.261719 435.335938 C 263.558594 436.253906 262.78125 437.109375 261.9375 437.902344 C 261.09375 438.691406 260.1875 439.410156 259.222656 440.050781 C 258.261719 440.695312 257.253906 441.253906 256.195312 441.730469 C 255.140625 442.207031 254.054688 442.59375 252.933594 442.894531 L 250.984375 442.894531 L 250.984375 442.875 C 250.175781 442.875 249.367188 442.832031 248.558594 442.75 C 247.753906 442.667969 246.953125 442.546875 246.15625 442.386719 C 245.359375 442.226562 244.574219 442.027344 243.800781 441.789062 C 243.023438 441.554688 242.261719 441.277344 241.511719 440.96875 C 240.765625 440.65625 240.03125 440.308594 239.316406 439.925781 C 238.601562 439.542969 237.90625 439.125 237.234375 438.671875 C 236.558594 438.222656 235.910156 437.738281 235.28125 437.226562 C 234.65625 436.710938 234.054688 436.164062 233.480469 435.59375 C 232.910156 435.019531 232.363281 434.417969 231.851562 433.792969 C 231.335938 433.164062 230.851562 432.515625 230.402344 431.839844 C 229.949219 431.167969 229.53125 430.472656 229.148438 429.757812 C 228.765625 429.042969 228.417969 428.3125 228.105469 427.5625 C 227.796875 426.8125 227.519531 426.050781 227.285156 425.273438 C 227.046875 424.5 226.847656 423.714844 226.6875 422.917969 C 226.527344 422.125 226.40625 421.324219 226.324219 420.515625 C 226.242188 419.707031 226.199219 418.898438 226.199219 418.089844 L 226.199219 370.898438 L 305.652344 370.898438 C 305.921875 370.898438 306.195312 370.871094 306.460938 370.820312 C 306.726562 370.765625 306.988281 370.6875 307.238281 370.582031 C 307.492188 370.476562 307.730469 370.347656 307.957031 370.199219 C 308.183594 370.046875 308.394531 369.875 308.585938 369.679688 C 308.78125 369.488281 308.953125 369.277344 309.101562 369.050781 C 309.253906 368.824219 309.382812 368.585938 309.488281 368.335938 C 309.589844 368.082031 309.667969 367.824219 309.722656 367.554688 C 309.777344 367.289062 309.804688 367.019531 309.804688 366.746094 L 309.804688 359.898438 L 416.609375 359.898438 C 416.882812 359.902344 417.15625 359.882812 417.429688 359.832031 C 417.699219 359.78125 417.964844 359.707031 418.21875 359.601562 C 418.476562 359.5 418.71875 359.375 418.949219 359.222656 C 419.179688 359.074219 419.394531 358.902344 419.589844 358.707031 C 419.785156 358.515625 419.960938 358.304688 420.117188 358.074219 C 420.269531 357.847656 420.402344 357.605469 420.507812 357.351562 C 420.613281 357.097656 420.695312 356.835938 420.75 356.566406 C 420.804688 356.296875 420.832031 356.023438 420.832031 355.746094 C 420.832031 355.472656 420.804688 355.199219 420.75 354.929688 C 420.695312 354.65625 420.613281 354.394531 420.507812 354.140625 C 420.402344 353.886719 420.269531 353.644531 420.117188 353.417969 C 419.960938 353.191406 419.785156 352.980469 419.589844 352.785156 C 419.394531 352.59375 419.179688 352.421875 418.949219 352.269531 C 418.71875 352.117188 418.476562 351.992188 418.21875 351.890625 C 417.964844 351.789062 417.699219 351.710938 417.429688 351.660156 C 417.15625 351.613281 416.882812 351.589844 416.609375 351.59375 L 309.804688 351.59375 L 309.804688 347.261719 Z M 301.5 262.96875 L 132.523438 262.96875 L 132.523438 362.59375 L 301.5 362.59375 Z M 261.738281 204.515625 L 345.835938 204.515625 C 346.382812 204.507812 346.902344 204.394531 347.40625 204.179688 C 347.90625 203.964844 348.347656 203.664062 348.726562 203.273438 C 349.109375 202.886719 349.40625 202.441406 349.609375 201.9375 C 349.816406 201.433594 349.921875 200.90625 349.921875 200.363281 C 349.921875 199.820312 349.816406 199.292969 349.609375 198.789062 C 349.40625 198.285156 349.109375 197.839844 348.726562 197.449219 C 348.347656 197.0625 347.90625 196.761719 347.40625 196.546875 C 346.902344 196.332031 346.382812 196.21875 345.835938 196.210938 L 261.738281 196.210938 C 261.191406 196.21875 260.667969 196.332031 260.167969 196.546875 C 259.667969 196.761719 259.226562 197.0625 258.84375 197.449219 C 258.464844 197.839844 258.167969 198.285156 257.960938 198.789062 C 257.757812 199.292969 257.652344 199.820312 257.652344 200.363281 C 257.652344 200.90625 257.757812 201.433594 257.960938 201.9375 C 258.167969 202.441406 258.464844 202.886719 258.84375 203.273438 C 259.226562 203.664062 259.667969 203.964844 260.167969 204.179688 C 260.667969 204.394531 261.191406 204.507812 261.738281 204.515625 Z M 261.738281 204.515625 " fill-opacity="1" fill-rule="evenodd"/><g clip-path="url(#a254b797be)"><path fill="#dc433a" d="M 503.128906 444.90625 C 503.128906 445.59375 503.128906 446.210938 503.128906 446.898438 C 503.128906 507.433594 453.992188 556.441406 393.441406 556.441406 C 332.894531 556.441406 283.753906 507.363281 283.753906 446.898438 C 283.753906 446.210938 283.753906 445.59375 283.753906 444.90625 C 284.785156 504.480469 333.511719 552.460938 393.441406 552.460938 C 453.371094 552.460938 502.097656 504.480469 503.128906 444.90625 Z M 503.128906 444.90625 " fill-opacity="1" fill-rule="nonzero"/></g><g clip-path="url(#44e8216062)"><path fill="#eb4f45" d="M 503.128906 442.914062 C 503.128906 443.601562 503.128906 444.21875 503.128906 444.90625 C 502.097656 504.480469 453.371094 552.460938 393.441406 552.460938 C 333.511719 552.460938 284.855469 504.480469 283.753906 444.90625 C 283.753906 444.21875 283.753906 443.601562 283.753906 442.914062 C 283.753906 382.449219 332.894531 333.371094 393.441406 333.371094 C 454.058594 333.371094 503.128906 382.449219 503.128906 442.914062 Z M 503.128906 442.914062 " fill-opacity="1" fill-rule="nonzero"/></g><path fill="#e9e8e8" d="M 411.378906 445.9375 L 457.566406 489.039062 L 457.566406 492.058594 L 439.765625 509.835938 L 393.511719 463.78125 L 347.328125 509.90625 L 329.527344 492.128906 L 329.527344 489.109375 L 375.710938 446.003906 L 329.527344 399.8125 L 329.527344 396.792969 L 347.328125 381.96875 L 393.511719 428.089844 L 439.695312 381.96875 L 457.496094 396.792969 L 457.496094 399.8125 Z M 411.378906 445.9375 " fill-opacity="1" fill-rule="nonzero"/><path fill="#ffffff" d="M 411.378906 442.984375 L 457.566406 489.109375 L 439.765625 506.882812 L 393.582031 460.761719 L 347.394531 506.882812 L 329.597656 489.109375 L 375.78125 442.984375 L 329.527344 396.859375 L 347.328125 379.085938 L 393.511719 425.207031 L 439.695312 379.085938 L 457.496094 396.859375 Z M 411.378906 442.984375 " fill-opacity="1" fill-rule="nonzero"/></g></g></svg>